<svg width="140" height="59" viewBox="0 0 140 59" fill="none" xmlns="http://www.w3.org/2000/svg">
<path d="M56.7306 42.0328H57.6251L58.2404 43.5322H58.2714L58.8867 42.0328H59.7812V44.6801H59.078V43.1496H59.0573L58.4679 44.6594H58.0439L57.4545 43.1393H57.4338V44.6801H56.7306V42.0328ZM61.3555 44.6801H60.5799L61.4537 42.0328H62.4361L63.3099 44.6801H62.5343L61.9552 42.7618H61.9346L61.3555 44.6801ZM61.2107 43.6356H62.6688V44.1733H61.2107V43.6356ZM63.7043 42.6119V42.0328H66.0052V42.6119H65.2089V44.6801H64.5006V42.6119H63.7043ZM69.1687 43.0255H68.4397C68.4345 42.9652 68.4207 42.9105 68.3983 42.8613C68.3768 42.8122 68.3466 42.77 68.3079 42.7347C68.2699 42.6985 68.2238 42.6709 68.1695 42.6519C68.1153 42.6321 68.0536 42.6222 67.9847 42.6222C67.8641 42.6222 67.7619 42.6515 67.6783 42.7101C67.5956 42.7687 67.5327 42.8527 67.4896 42.9622C67.4474 43.0716 67.4263 43.203 67.4263 43.3564C67.4263 43.5184 67.4478 43.6541 67.4909 43.7636C67.5349 43.8722 67.5982 43.954 67.6809 44.0092C67.7637 44.0635 67.8632 44.0906 67.9795 44.0906C68.0459 44.0906 68.1053 44.0824 68.1579 44.0661C68.2105 44.0488 68.2561 44.0243 68.2949 43.9924C68.3337 43.9605 68.3652 43.9222 68.3893 43.8773C68.4143 43.8317 68.4311 43.7804 68.4397 43.7235L69.1687 43.7287C69.1601 43.8407 69.1287 43.9549 69.0744 44.0712C69.0201 44.1867 68.943 44.2936 68.843 44.3918C68.7439 44.4892 68.6211 44.5676 68.4746 44.6271C68.3281 44.6865 68.1579 44.7162 67.964 44.7162C67.721 44.7162 67.503 44.6641 67.31 44.5598C67.1178 44.4556 66.9657 44.3022 66.8537 44.0997C66.7425 43.8972 66.6869 43.6494 66.6869 43.3564C66.6869 43.0617 66.7438 42.8135 66.8575 42.6119C66.9713 42.4094 67.1247 42.2564 67.3177 42.153C67.5107 42.0487 67.7262 41.9966 67.964 41.9966C68.1312 41.9966 68.285 42.0194 68.4255 42.0651C68.5659 42.1108 68.6892 42.1776 68.7952 42.2655C68.9012 42.3525 68.9865 42.4598 69.0511 42.5873C69.1157 42.7149 69.1549 42.8609 69.1687 43.0255ZM70.0408 44.6801V42.0328H70.7595V43.0669H71.7109V42.0328H72.4295V44.6801H71.7109V43.646H70.7595V44.6801H70.0408ZM73.3168 44.6801V42.0328H74.4646C74.6663 42.0328 74.8356 42.0599 74.9726 42.1142C75.1105 42.1685 75.2144 42.2452 75.2842 42.3443C75.3548 42.4434 75.3901 42.5602 75.3901 42.6946C75.3901 42.792 75.3686 42.8807 75.3255 42.9609C75.2833 43.041 75.2238 43.1082 75.1471 43.1625C75.0704 43.216 74.9808 43.253 74.8783 43.2737V43.2995C74.992 43.3039 75.0954 43.3327 75.1885 43.3861C75.2816 43.4387 75.3557 43.5115 75.4108 43.6046C75.466 43.6968 75.4936 43.8054 75.4936 43.9303C75.4936 44.0751 75.4556 44.2039 75.3798 44.3168C75.3048 44.4297 75.198 44.5185 75.0592 44.5831C74.9205 44.6477 74.755 44.6801 74.5629 44.6801H73.3168ZM74.0355 44.1061H74.3716C74.4922 44.1061 74.5827 44.0837 74.643 44.0389C74.7033 43.9932 74.7335 43.926 74.7335 43.8373C74.7335 43.7752 74.7193 43.7227 74.6908 43.6796C74.6624 43.6365 74.6219 43.6037 74.5693 43.5813C74.5176 43.5589 74.4552 43.5477 74.3819 43.5477H74.0355V44.1061ZM74.0355 43.1031H74.3302C74.3931 43.1031 74.4487 43.0932 74.497 43.0733C74.5452 43.0535 74.5827 43.0251 74.6094 42.988C74.637 42.9501 74.6508 42.904 74.6508 42.8497C74.6508 42.7678 74.6215 42.7054 74.5629 42.6623C74.5043 42.6183 74.4302 42.5964 74.3405 42.5964H74.0355V43.1031ZM78.8587 43.3564C78.8587 43.6511 78.8014 43.8997 78.6868 44.1023C78.5722 44.3039 78.4175 44.4569 78.2228 44.5611C78.028 44.6645 77.8109 44.7162 77.5713 44.7162C77.33 44.7162 77.112 44.6641 76.9172 44.5598C76.7233 44.4547 76.5691 44.3013 76.4545 44.0997C76.3407 43.8972 76.2839 43.6494 76.2839 43.3564C76.2839 43.0617 76.3407 42.8135 76.4545 42.6119C76.5691 42.4094 76.7233 42.2564 76.9172 42.153C77.112 42.0487 77.33 41.9966 77.5713 41.9966C77.8109 41.9966 78.028 42.0487 78.2228 42.153C78.4175 42.2564 78.5722 42.4094 78.6868 42.6119C78.8014 42.8135 78.8587 43.0617 78.8587 43.3564ZM78.1194 43.3564C78.1194 43.1979 78.0983 43.0643 78.056 42.9557C78.0147 42.8463 77.9531 42.7635 77.8712 42.7075C77.7902 42.6507 77.6902 42.6222 77.5713 42.6222C77.4524 42.6222 77.352 42.6507 77.2701 42.7075C77.1891 42.7635 77.1275 42.8463 77.0853 42.9557C77.0439 43.0643 77.0232 43.1979 77.0232 43.3564C77.0232 43.515 77.0439 43.649 77.0853 43.7584C77.1275 43.867 77.1891 43.9497 77.2701 44.0066C77.352 44.0626 77.4524 44.0906 77.5713 44.0906C77.6902 44.0906 77.7902 44.0626 77.8712 44.0066C77.9531 43.9497 78.0147 43.867 78.056 43.7584C78.0983 43.649 78.1194 43.515 78.1194 43.3564ZM80.3299 42.0328L80.7643 42.8032H80.7849L81.2244 42.0328H82.0258L81.2348 43.3564L82.0569 44.6801H81.2348L80.7849 43.8941H80.7643L80.3144 44.6801H79.4975L80.3093 43.3564L79.5233 42.0328H80.3299Z" fill="black"/>
<path fill-rule="evenodd" clip-rule="evenodd" d="M68.6779 11.9498C68.2869 12.0842 65.7942 13.2747 63.1385 14.5951C58.0072 17.1466 57.656 17.3983 57.1138 18.9112C56.7413 19.9507 56.7588 31.7205 57.1344 32.7807C57.5714 34.0142 58.3336 34.6321 61.1675 36.05C62.6079 36.7708 63.8172 37.3604 63.8547 37.3604C63.8924 37.3604 63.4264 36.8487 62.8195 36.2231C60.7464 34.0862 59.7745 31.5223 59.9296 28.6005C60.0791 25.7873 61.0152 23.8755 63.337 21.6416C66.7464 18.3615 68.3163 16.4605 68.7954 15.032C68.9041 14.7082 69.0621 14.3673 69.1467 14.2748C69.39 14.0082 70.6544 15.3621 71.078 16.3428C71.9462 18.3525 71.8683 20.2287 70.7871 23.3467C69.6889 26.5141 69.833 28.0344 71.2991 28.7478C71.9453 29.0622 71.9858 29.0622 72.6319 28.7478C74.0154 28.0746 74.6342 25.7145 74.2969 22.3962C74.1876 21.3199 74.098 20.3395 74.098 20.2174C74.098 19.8174 75.8927 20.945 77.019 22.0527C78.9076 23.9098 79.9624 26.4348 79.9624 29.0989C79.9624 31.832 78.947 34.2555 76.9819 36.2125C75.6676 37.5213 75.6333 37.5273 78.9321 35.8767C81.497 34.5934 81.8295 34.3394 82.4317 33.2043C82.7926 32.5237 82.8058 32.2678 82.8058 25.8987C82.8058 18.6694 82.7884 18.5316 81.7365 17.4492C81.4205 17.1241 79.2228 15.9312 76.1033 14.3917C70.6572 11.7041 70.0107 11.4916 68.6779 11.9498ZM67.0218 26.3389C66.4135 26.7609 65.1186 28.6435 64.6723 29.7545C64.1589 31.0331 64.1157 33.1596 64.5753 34.529C65.3014 36.6931 66.7983 38.504 68.2084 38.9247C69.2746 39.2429 71.0501 39.1747 71.9179 38.7824C74.3124 37.6999 76.0107 34.0426 75.5512 30.9584C75.4492 30.2748 75.3251 29.6751 75.2754 29.6255C75.2256 29.576 74.8003 29.8584 74.3301 30.2532C72.7906 31.546 71.6105 31.8093 70.2643 31.1604C69.0932 30.5958 68.285 29.2378 67.872 27.1405C67.7522 26.5323 67.6047 26.0387 67.5441 26.0437C67.4835 26.0488 67.2484 26.1817 67.0218 26.3389Z" fill="black"/>
</svg>
