<svg width="140" height="59" viewBox="0 0 140 59" fill="none" xmlns="http://www.w3.org/2000/svg">
<rect width="14.749" height="14.7505" transform="matrix(0.710704 -0.703492 0.715089 0.699033 15.5312 27.7357)" fill="black"/>
<rect width="14.749" height="14.7505" transform="matrix(0.710704 -0.703492 0.715089 0.699033 15.12 30.5688)" fill="black"/>
<rect width="13.5475" height="13.5487" transform="matrix(0.710704 -0.703492 0.715089 0.699033 16.3918 27.7451)" fill="#FBFBFB"/>
<rect width="10.3003" height="10.2173" transform="matrix(0.710704 -0.703492 0.715089 0.699033 18.8621 27.8829)" fill="black"/>
<rect width="5.16469" height="5.22421" transform="matrix(0.710704 -0.703492 0.715089 0.699033 22.5264 27.874)" fill="white"/>
<rect width="1.86931" height="1.9973" transform="matrix(0.710704 -0.703492 0.715089 0.699033 24.9359 27.9265)" fill="black"/>
<path d="M51.9982 24.5114V33.16H49.8915V27.9733L47.9573 33.16H46.2571L44.3106 27.961V33.16H42.2038V24.5114H44.6925L47.1195 30.4989L49.5219 24.5114H51.9982ZM55.6199 24.5114V33.16H53.5132V24.5114H55.6199ZM64.8836 33.16H62.7769L59.2534 27.8255V33.16H57.1467V24.5114H59.2534L62.7769 29.8706V24.5114H64.8836V33.16ZM72.6323 24.5114V26.1992H70.3408V33.16H68.2341V26.1992H65.9426V24.5114H72.6323ZM76.8189 33.2463C76.1865 33.2463 75.6198 33.1436 75.1187 32.9383C74.6177 32.7329 74.2153 32.429 73.9114 32.0266C73.6157 31.6241 73.4596 31.1396 73.4432 30.5728H75.6855C75.7183 30.8932 75.8292 31.1396 76.0181 31.312C76.207 31.4763 76.4534 31.5584 76.7573 31.5584C77.0694 31.5584 77.3158 31.4886 77.4965 31.349C77.6772 31.2012 77.7675 30.9999 77.7675 30.7453C77.7675 30.5318 77.6936 30.3552 77.5458 30.2156C77.4062 30.0759 77.2296 29.9609 77.016 29.8706C76.8107 29.7802 76.515 29.6776 76.129 29.5626C75.5705 29.3901 75.1146 29.2176 74.7615 29.0452C74.4083 28.8727 74.1044 28.6181 73.8498 28.2813C73.5952 27.9446 73.4679 27.5052 73.4679 26.9631C73.4679 26.1582 73.7594 25.5298 74.3426 25.0781C74.9257 24.6182 75.6855 24.3882 76.6218 24.3882C77.5745 24.3882 78.3425 24.6182 78.9256 25.0781C79.5088 25.5298 79.8209 26.1623 79.8619 26.9754H77.5827C77.5663 26.6961 77.4636 26.4785 77.2747 26.3224C77.0858 26.1582 76.8435 26.076 76.5479 26.076C76.2932 26.076 76.0879 26.1458 75.9319 26.2855C75.7758 26.4169 75.6978 26.6099 75.6978 26.8645C75.6978 27.1438 75.8292 27.3614 76.092 27.5175C76.3548 27.6735 76.7655 27.8419 77.324 28.0226C77.8825 28.2115 78.3343 28.3922 78.6792 28.5647C79.0324 28.7372 79.3363 28.9877 79.5909 29.3162C79.8455 29.6447 79.9728 30.0677 79.9728 30.5852C79.9728 31.078 79.8455 31.5256 79.5909 31.928C79.3445 32.3305 78.9831 32.6508 78.5067 32.889C78.0304 33.1272 77.4678 33.2463 76.8189 33.2463ZM87.4293 34.6384L86.3205 33.1477C85.992 33.2134 85.6717 33.2463 85.3596 33.2463C84.5464 33.2463 83.799 33.0574 83.1173 32.6796C82.4438 32.3017 81.9058 31.7761 81.5034 31.1026C81.1092 30.4209 80.912 29.657 80.912 28.8111C80.912 27.9651 81.1092 27.2054 81.5034 26.5319C81.9058 25.8584 82.4438 25.3327 83.1173 24.9549C83.799 24.5771 84.5464 24.3882 85.3596 24.3882C86.1727 24.3882 86.916 24.5771 87.5895 24.9549C88.2712 25.3327 88.805 25.8584 89.1911 26.5319C89.5853 27.2054 89.7824 27.9651 89.7824 28.8111C89.7824 29.5503 89.6305 30.2279 89.3266 30.8439C89.0309 31.4517 88.6161 31.9568 88.0823 32.3592L89.9796 34.6384H87.4293ZM83.068 28.8111C83.068 29.5749 83.2734 30.1868 83.684 30.6468C84.1029 31.0985 84.6614 31.3244 85.3596 31.3244C86.0495 31.3244 86.5998 31.0944 87.0104 30.6344C87.4293 30.1745 87.6388 29.5667 87.6388 28.8111C87.6388 28.0472 87.4293 27.4394 87.0104 26.9877C86.5998 26.5278 86.0495 26.2978 85.3596 26.2978C84.6614 26.2978 84.1029 26.5237 83.684 26.9754C83.2734 27.4271 83.068 28.039 83.068 28.8111ZM93.0483 24.5114V29.6858C93.0483 30.2032 93.1756 30.6016 93.4302 30.8808C93.6848 31.1601 94.0585 31.2997 94.5513 31.2997C95.0441 31.2997 95.4219 31.1601 95.6848 30.8808C95.9476 30.6016 96.079 30.2032 96.079 29.6858V24.5114H98.1857V29.6735C98.1857 30.4455 98.0215 31.0985 97.6929 31.6324C97.3644 32.1662 96.9209 32.5687 96.3624 32.8397C95.8121 33.1108 95.1961 33.2463 94.5144 33.2463C93.8327 33.2463 93.2208 33.1149 92.6787 32.852C92.1448 32.581 91.7218 32.1785 91.4097 31.6447C91.0976 31.1026 90.9416 30.4455 90.9416 29.6735V24.5114H93.0483ZM105.049 31.6324H101.821L101.304 33.16H99.0984L102.228 24.5114H104.667L107.796 33.16H105.566L105.049 31.6324ZM104.507 30.0061L103.435 26.8399L102.375 30.0061H104.507ZM113.159 33.16L111.361 29.8952H110.855V33.16H108.749V24.5114H112.285C112.966 24.5114 113.545 24.6305 114.022 24.8687C114.506 25.1069 114.868 25.4354 115.106 25.8543C115.344 26.2649 115.463 26.7249 115.463 27.2341C115.463 27.809 115.299 28.3224 114.97 28.7741C114.65 29.2258 114.174 29.5462 113.541 29.7351L115.537 33.16H113.159ZM110.855 28.4045H112.161C112.547 28.4045 112.835 28.3101 113.024 28.1212C113.221 27.9322 113.319 27.6653 113.319 27.3204C113.319 26.9918 113.221 26.7331 113.024 26.5442C112.835 26.3553 112.547 26.2608 112.161 26.2608H110.855V28.4045ZM118.892 26.1992V27.9487H121.714V29.5749H118.892V31.4722H122.083V33.16H116.786V24.5114H122.083V26.1992H118.892Z" fill="black"/>
</svg>
