<svg width="140" height="59" viewBox="0 0 140 59" fill="none" xmlns="http://www.w3.org/2000/svg">
<path fill-rule="evenodd" clip-rule="evenodd" d="M49.2772 23.2671C49.1433 23.4034 49.1433 35.2681 49.2772 35.4045C49.4249 35.555 50.8375 35.5309 50.9902 35.3754C51.0981 35.2654 51.1113 34.6121 51.1113 29.3643C51.1113 25.4559 51.0845 23.4255 51.0315 23.3247C50.9606 23.1897 50.8639 23.1729 50.1607 23.1729C49.6482 23.1729 49.337 23.2061 49.2772 23.2671ZM61.3802 23.2591C61.3048 23.339 61.2839 24.6656 61.2839 29.3487C61.2839 34.974 61.2921 35.3401 61.4187 35.4012C61.4929 35.437 62.7327 35.4426 64.1738 35.4136C67.0785 35.3553 67.3686 35.3143 68.3432 34.8245C69.6786 34.1533 70.6453 32.7577 71.0421 30.928C71.223 30.0936 71.2067 28.5942 71.0058 27.6086C70.5532 25.3882 69.0839 23.8069 67.0638 23.3658C66.2692 23.1924 61.527 23.1033 61.3802 23.2591ZM90.241 23.2576C90.1222 23.3281 90.1062 23.4757 90.1062 24.4957C90.1062 25.2917 90.0773 25.6832 90.0137 25.7479C89.956 25.8067 89.6696 25.8422 89.2513 25.8422C88.4656 25.8422 88.4878 25.817 88.4878 26.7057C88.4878 27.5952 88.4648 27.5693 89.2573 27.5693C89.7109 27.5693 89.96 27.6022 90.0147 27.6694C90.0679 27.7347 90.1052 28.832 90.1222 30.8293C90.1455 33.5573 90.1636 33.9319 90.2893 34.2818C90.481 34.8157 90.7364 35.1401 91.1684 35.3989C91.4967 35.5955 91.6027 35.6165 92.264 35.6165C92.8985 35.6165 93.0554 35.5882 93.4406 35.4043C94.6897 34.808 95.4901 33.2153 95.7209 30.867C95.8197 29.8615 95.7153 29.6539 95.5857 30.5981C95.2912 32.7428 94.327 34.0856 93.0816 34.0856C92.6787 34.0856 92.3072 33.8176 92.1379 33.4048C91.987 33.0369 91.9838 27.787 92.1344 27.6597C92.1946 27.6088 92.6885 27.5649 93.3481 27.552L94.4603 27.5301V26.7057V25.8814L93.3481 25.8595C92.6885 25.8465 92.1946 25.8027 92.1344 25.7518C92.0587 25.6878 92.0328 25.3691 92.0328 24.5007C92.0328 23.4289 92.0208 23.3288 91.8837 23.2541C91.6924 23.1498 90.4182 23.1525 90.241 23.2576ZM32.5772 23.4812C31.8227 23.6766 31.2923 23.9083 30.688 24.3066C28.3582 25.8419 27.4028 28.8592 28.3804 31.5938C29.0436 33.449 30.4944 34.7962 32.4296 35.3538C33.2735 35.5969 34.6951 35.5963 35.5783 35.3524C38.0947 34.6576 39.7828 32.523 39.9814 29.785C40.1619 27.2956 38.7189 24.8332 36.4912 23.8295C35.3896 23.3332 33.7215 23.1848 32.5772 23.4812ZM66.363 25.0995C68.1475 25.5277 69.073 26.9534 69.0874 29.2965C69.0965 30.7712 68.7514 31.8041 67.9676 32.6484C67.2136 33.4605 66.3611 33.7149 64.5206 33.6769L63.4032 33.6538L63.3832 29.3839C63.3677 26.0566 63.3846 25.0879 63.4597 24.9957C63.5414 24.8954 63.733 24.8852 64.7127 24.9292C65.3488 24.9577 66.0914 25.0344 66.363 25.0995ZM35.1816 25.4503C36.1547 25.7565 37.0615 26.5521 37.543 27.522C38.7409 29.9352 37.4079 32.8777 34.8371 33.4951C34.2299 33.641 33.874 33.6422 33.2188 33.5008C32.4282 33.33 31.8743 33.0188 31.2587 32.3994C30.4044 31.5396 30.0446 30.6566 30.0426 29.4143C30.0398 27.5625 31.1409 25.9948 32.8314 25.4442C33.4527 25.2418 34.5278 25.2446 35.1816 25.4503ZM83.768 25.692C82.3483 25.852 81.3286 26.5037 80.8329 27.568C80.6399 27.9825 80.59 28.2029 80.564 28.7559C80.5251 29.584 80.6206 29.9142 81.0299 30.3665C81.4462 30.8267 81.8892 30.9778 83.531 31.22C85.6705 31.5357 86.0708 31.6355 86.3768 31.9294C86.606 32.1497 86.6382 32.2288 86.6382 32.5719C86.6382 33.5185 85.6485 34.1572 84.3251 34.0648C83.2557 33.9902 82.6309 33.5735 82.2843 32.7038L82.0997 32.2406L81.3365 32.2184C80.3751 32.1904 80.3338 32.225 80.507 32.9141C80.7728 33.9709 81.305 34.6676 82.2301 35.1699C82.8411 35.5017 83.5235 35.6535 84.4034 35.6532C85.787 35.6528 86.7267 35.3167 87.5037 34.5441C88.1458 33.9056 88.3724 33.3756 88.3713 32.5154C88.3705 31.9759 88.3372 31.7846 88.1974 31.5166C87.8313 30.8148 87.265 30.3449 86.5026 30.1104C86.3017 30.0486 85.4155 29.8929 84.5332 29.7644C83.651 29.6359 82.8295 29.4783 82.7076 29.4141C82.2428 29.1693 82.1414 28.7918 82.3904 28.2334C82.7587 27.4074 83.8699 27.0506 85.0363 27.3841C85.6029 27.546 86.0293 27.9232 86.3551 28.5507L86.5997 29.0218H87.3704H88.141L88.1658 28.8013C88.1993 28.5035 87.9292 27.7142 87.6325 27.2434C86.9262 26.122 85.3975 25.5083 83.768 25.692ZM51.7278 25.7949C51.7278 25.8191 52.4808 27.8093 53.4012 30.2174C55.0228 34.4605 55.0745 34.6129 55.0711 35.1454C55.0691 35.4704 55.0167 35.8154 54.943 35.9894L54.8183 36.2838H53.7834C52.9912 36.2838 52.7276 36.3096 52.6592 36.3936C52.6011 36.4649 52.5775 36.7739 52.592 37.2768L52.6141 38.0503L54.3253 38.0714C55.9799 38.0918 56.0392 38.0872 56.1207 37.9323C56.2278 37.7282 60.5903 25.9141 60.5903 25.8279C60.5903 25.7194 58.7874 25.7508 58.6391 25.8618C58.5229 25.9488 57.9417 27.5406 56.6331 31.3568C56.4148 31.9934 56.2188 32.5136 56.1976 32.5128C56.1764 32.5119 55.6429 31.0549 55.0121 29.2749C54.3813 27.4948 53.8165 25.9854 53.7573 25.9207C53.6753 25.8312 53.4183 25.7966 52.6886 25.7768C52.1602 25.7625 51.7278 25.7706 51.7278 25.7949ZM40.759 25.8945C40.7307 25.9232 40.7075 28.0536 40.7075 30.6286C40.7075 34.1653 40.7301 35.3333 40.8 35.4045C40.8968 35.5031 42.2066 35.5404 42.4352 35.4511C42.5441 35.4085 42.5571 34.9935 42.5571 31.5745C42.5571 28.422 42.5758 27.7297 42.6631 27.656C42.7374 27.5931 43.3163 27.5727 44.609 27.5876L46.4489 27.6086L46.4874 31.4781C46.5206 34.803 46.5422 35.358 46.6415 35.4219C46.7855 35.5146 48.1837 35.5206 48.3253 35.4292C48.4108 35.3741 48.4284 34.5244 48.4246 30.661C48.422 28.0754 48.4185 25.9335 48.417 25.901C48.4133 25.8283 40.8302 25.8218 40.759 25.8945ZM72.0496 25.8922C72.0201 25.9222 71.9959 28.0536 71.9959 30.6286C71.9959 34.1653 72.0185 35.3333 72.0884 35.4045C72.2326 35.5514 79.5735 35.5391 79.6935 35.3918C79.7567 35.3143 79.7752 33.9905 79.7608 30.5831L79.7409 25.8814L78.8354 25.8593C78.3374 25.8471 77.922 25.8471 77.9125 25.8593C77.9029 25.8714 77.8769 27.6302 77.8547 29.7676L77.8143 33.6538L75.907 33.6747C74.8579 33.6864 73.9917 33.6864 73.9822 33.6747C73.9725 33.6632 73.9466 31.905 73.9244 29.7676L73.884 25.8814L72.9937 25.8594C72.5039 25.8473 72.0791 25.862 72.0496 25.8922Z" fill="black"/>
</svg>
