<svg width="140" height="59" viewBox="0 0 140 59" fill="none" xmlns="http://www.w3.org/2000/svg">
<path fill-rule="evenodd" clip-rule="evenodd" d="M25.9735 21.6333C24.3121 23.3375 23.9871 23.689 23.9651 23.8055C23.9451 23.912 24.0206 24.2577 24.287 25.2796C24.4785 26.0138 24.6265 26.6232 24.6158 26.6338C24.6052 26.6444 24.5358 26.5689 24.4616 26.466C24.1663 26.0566 23.1749 24.9774 23.0125 24.8886C22.9477 24.8532 22.8979 24.8498 22.8462 24.8773C22.8056 24.899 21.9326 25.7769 20.9063 26.8285C19.4357 28.335 19.04 28.7616 19.04 28.8406C19.04 28.9198 19.4502 29.3608 20.9818 30.9286C22.0498 32.0218 22.9625 32.9433 23.0099 32.9764C23.0574 33.0094 23.1591 33.0359 23.2359 33.0351C23.3127 33.0343 23.9368 32.8776 24.6228 32.6869C25.3087 32.4962 25.8832 32.3471 25.8995 32.3556C25.9157 32.3641 25.791 32.4802 25.6223 32.6135C25.4536 32.7469 25.0616 33.105 24.751 33.4092C24.2547 33.8955 24.1865 33.9779 24.1868 34.0899C24.1872 34.2045 24.3768 34.4116 26.0721 36.1487C27.4873 37.5988 27.9798 38.0801 28.0485 38.0801C28.1171 38.0801 28.6172 37.5915 30.0547 36.1198C31.1078 35.0416 32.0091 34.1084 32.0575 34.0458C32.1078 33.981 32.1456 33.8762 32.1456 33.8018C32.1456 33.73 31.9935 33.0914 31.8077 32.3826C31.6219 31.6737 31.476 31.0757 31.4834 31.0535C31.4908 31.0314 31.5391 31.074 31.5907 31.1482C31.8652 31.5426 32.9362 32.7151 33.1034 32.8042C33.1503 32.8291 33.2014 32.8282 33.2513 32.8016C33.3751 32.7357 36.9924 29.0204 37.0324 28.918C37.0549 28.8606 37.0549 28.7946 37.0324 28.7475C36.9873 28.6528 33.2382 24.8085 33.0978 24.7129C33.0422 24.6751 32.9394 24.6441 32.8692 24.644C32.7734 24.6438 30.555 25.2287 30.255 25.3332C30.1402 25.3732 30.2215 25.2732 30.4474 25.0966C30.7974 24.8229 31.8709 23.7753 31.9124 23.667C31.9356 23.606 31.9308 23.5439 31.8981 23.4833C31.8709 23.4329 31.0144 22.5386 29.9948 21.4959C28.5912 20.0606 28.1184 19.6001 28.0483 19.6001C27.978 19.6001 27.4777 20.0903 25.9735 21.6333ZM43.8599 24.4294C43.4619 24.5011 43.1665 24.6141 42.8805 24.8042C42.4941 25.061 42.2732 25.4225 42.1758 25.9573C42.0682 26.5476 42.1693 27.1273 42.4686 27.6367C42.7697 28.1492 43.1442 28.4645 45.991 30.6026C46.104 30.6875 46.2465 30.8221 46.3077 30.9018C46.4059 31.0294 46.4191 31.0802 46.4191 31.3282C46.4191 31.554 46.4034 31.6272 46.3399 31.6981C46.1676 31.8904 46.1297 31.8938 44.1635 31.8938H42.3212V32.741V33.5882H44.4609C46.8457 33.5882 46.9714 33.5775 47.5003 33.3308C48.2027 33.0032 48.5757 32.3507 48.5875 31.4289C48.5955 30.8076 48.434 30.3322 48.0422 29.8232C47.7414 29.4324 47.5115 29.2511 46.0379 28.2432C45.3228 27.7542 44.6594 27.2853 44.5635 27.2013C44.1934 26.8771 44.1763 26.3804 44.5273 26.1514C44.6242 26.0882 44.8056 26.0801 46.5361 26.0622L48.4384 26.0425L48.4491 25.2052L48.4598 24.3679L46.311 24.3714C44.6674 24.3741 44.0912 24.3877 43.8599 24.4294ZM49.448 25.215V26.0622H50.6754H51.9029V29.8252V33.5882H52.9719H54.0409V29.8257V26.0633L55.2584 26.0529L56.4759 26.0425L56.4866 25.2052L56.4973 24.3679H52.9727H49.448V25.215ZM58.0597 28.9431C57.058 31.4592 56.2324 33.5336 56.2252 33.553C56.2176 33.5731 56.7018 33.5882 57.3576 33.5882H58.5032L58.816 32.7018L59.1287 31.8155L60.9901 31.8153L62.8516 31.815L63.1668 32.7016L63.4821 33.5882H64.6256C65.6983 33.5882 65.7675 33.5839 65.7427 33.5192C65.7282 33.4813 64.9028 31.4067 63.9085 28.9091L62.1007 24.3679L60.9909 24.3681L59.881 24.3684L58.0597 28.9431ZM66.3546 28.9754V33.5882H67.4236H68.4926V31.9073V30.2266L69.1213 30.2512C69.8789 30.2809 70.1142 30.349 70.3315 30.6016C70.5356 30.8389 70.6431 31.1596 70.9432 32.4258L71.214 33.5685L72.2883 33.5789C72.8792 33.5847 73.3627 33.5758 73.3627 33.5592C73.3626 33.4673 72.8318 31.3133 72.7435 31.0473C72.5194 30.3712 72.2002 29.8942 71.8077 29.6489L71.5887 29.512L71.8998 29.3664C72.7955 28.9474 73.1981 28.0525 73.0849 26.732C73.0172 25.9425 72.8357 25.4897 72.4226 25.0801C72.12 24.78 71.8157 24.6134 71.3236 24.4785C71.0169 24.3944 70.9328 24.3912 68.6807 24.3772L66.3546 24.3628V28.9754ZM74.788 28.978V33.5882H75.837H76.8859L76.8961 31.2265L76.9063 28.865L78.6646 31.2105C79.6316 32.5005 80.4425 33.5635 80.4665 33.5727C80.4905 33.5818 81.0539 33.5846 81.7184 33.5789L82.9268 33.5685L81.0747 31.2107C80.056 29.9139 79.2235 28.8412 79.2247 28.8268C79.2259 28.8124 80.0072 27.8077 80.9609 26.5941L82.6948 24.3876L81.4837 24.3771C80.8176 24.3714 80.2543 24.3737 80.2319 24.3822C80.2095 24.3908 79.4521 25.3896 78.5488 26.6019L76.9063 28.8061L76.8961 26.587L76.8858 24.3679H75.837H74.788V28.978ZM84.0926 24.3778C84.0926 24.3844 84.7139 26.455 85.4732 28.9791L86.8538 33.5685L87.5222 33.5791L88.1905 33.5898L89.2972 29.9009C90.33 26.4587 90.4069 26.2209 90.4485 26.344C90.4729 26.4165 90.9727 28.0762 91.559 30.032L92.625 33.5882H93.2882C93.653 33.5882 93.9514 33.5803 93.9514 33.5707C93.9514 33.5612 94.575 31.5028 95.3372 28.9966C96.0994 26.4904 96.723 24.4237 96.723 24.4038C96.723 24.3836 96.4463 24.3679 96.0921 24.3679C95.5255 24.3679 95.4592 24.3749 95.4409 24.4368C95.4296 24.4748 94.9376 26.2162 94.3475 28.3067C93.7574 30.3972 93.2682 32.1141 93.2603 32.1219C93.2524 32.1298 93.2361 32.1038 93.224 32.0642C93.1711 31.891 91.0618 24.7982 91.0025 24.5944L90.9367 24.3679H90.4078H89.8789L89.813 24.5944C89.5461 25.5133 87.6084 32.0081 87.5833 32.0683C87.5603 32.1232 87.4891 31.9221 87.325 31.3393C87.2004 30.8966 86.7098 29.1514 86.2349 27.461L85.3713 24.3876L84.7319 24.3767C84.3803 24.3708 84.0926 24.3712 84.0926 24.3778ZM98.0769 28.9081C97.0717 31.4063 96.2382 33.4813 96.2246 33.5192C96.2016 33.5831 96.2485 33.5882 96.8672 33.5881L97.5346 33.588L97.9904 32.3961L98.4461 31.2043L100.547 31.1941L102.648 31.1839L103.103 32.3762L103.557 33.5685L104.232 33.5792L104.907 33.59L103.055 28.9888L101.204 24.3876L100.554 24.3768L99.9044 24.366L98.0769 28.9081ZM106.028 28.9755V33.5882H106.641H107.254L107.264 31.687L107.275 29.7858L108.265 29.7878C109.57 29.7905 109.845 29.8577 110.232 30.2691C110.58 30.6401 110.74 31.0895 111.057 32.5932L111.267 33.5882H111.893C112.376 33.5882 112.515 33.5769 112.502 33.5389C112.493 33.5118 112.385 33.0286 112.262 32.4652C112.032 31.4171 111.851 30.7929 111.677 30.4508C111.451 30.0073 111.12 29.6636 110.724 29.4631L110.53 29.3649L110.783 29.2798C111.522 29.0314 111.997 28.4819 112.145 27.7038C112.222 27.302 112.221 26.5736 112.143 26.1886C112 25.4843 111.612 24.9566 111.037 24.6834C110.437 24.3987 110.412 24.396 108.096 24.3785L106.028 24.3628V28.9755ZM114.51 28.1604C114.521 31.6417 114.528 31.9723 114.592 32.1894C114.807 32.9193 115.168 33.2718 115.913 33.479C116.21 33.5616 116.307 33.5657 118.311 33.5789L120.4 33.5926V33.121V32.6494L118.628 32.6334C116.938 32.6182 116.844 32.6135 116.595 32.5316C116.249 32.4182 116.013 32.2103 115.863 31.8863L115.748 31.6377L115.735 30.3473L115.723 29.0568H117.784H119.846V28.6037V28.1505H117.787H115.728V26.7517V25.3529H118.064H120.4V24.8604V24.3679H117.449H114.498L114.51 28.1604ZM109.466 25.3151C110.24 25.4116 110.678 25.7194 110.886 26.3124C110.988 26.6033 110.988 27.5701 110.886 27.8609C110.67 28.4755 110.24 28.7683 109.415 28.8623C109.218 28.8848 108.656 28.8979 108.166 28.8913L107.275 28.8795L107.264 27.1261C107.259 26.1617 107.263 25.3505 107.273 25.3234C107.297 25.2606 108.978 25.2543 109.466 25.3151ZM101.452 28.0273C101.923 29.2706 102.302 30.2948 102.294 30.3032C102.285 30.3116 101.493 30.3139 100.533 30.3083L98.7879 30.298L99.6655 28.0044C100.148 26.743 100.555 25.7234 100.569 25.7387C100.582 25.7541 100.98 26.7839 101.452 28.0273ZM70.2348 26.0411C70.387 26.0895 70.508 26.1655 70.6367 26.2935C70.896 26.5513 70.9597 26.7861 70.9415 27.4157C70.9288 27.8542 70.9177 27.9143 70.8089 28.1308C70.5774 28.5917 70.2655 28.7022 69.197 28.7022H68.4926V27.3189V25.9356L69.2548 25.9538C69.8326 25.9676 70.0697 25.9887 70.2348 26.0411ZM29.3752 27.2838C29.0825 28.4019 29.0577 28.5251 29.1001 28.653C29.1325 28.7507 29.3996 29.0522 29.9769 29.643C30.4335 30.1102 30.79 30.4981 30.7691 30.5051C30.7481 30.512 30.2119 30.3752 29.5774 30.201C28.943 30.0268 28.3859 29.8843 28.3394 29.8843C28.2294 29.8843 28.0117 30.0195 27.9063 30.153C27.7733 30.3218 26.4358 31.6623 26.418 31.6446C26.4091 31.6358 26.5463 31.0759 26.7228 30.4003C26.9563 29.5066 27.0364 29.1392 27.017 29.0512C26.9979 28.9652 26.7461 28.6788 26.1432 28.0578C25.6774 27.5778 25.3132 27.1795 25.3339 27.1726C25.3546 27.1657 25.8909 27.3031 26.5256 27.478C27.1604 27.6528 27.7179 27.7953 27.7646 27.7945C27.8114 27.7938 27.8881 27.7716 27.9351 27.7453C27.9821 27.719 28.3898 27.32 28.841 26.8586C29.2922 26.3973 29.6694 26.0278 29.6792 26.0375C29.6889 26.0473 29.5522 26.6081 29.3752 27.2838ZM61.6592 28.4599C61.9987 29.4211 62.2764 30.2234 62.2764 30.2429C62.2764 30.2631 61.7231 30.2783 60.9854 30.2783C59.9691 30.2783 59.6983 30.2678 59.7128 30.2291C59.7229 30.202 60.0141 29.387 60.3599 28.418C60.7057 27.449 61.0006 26.6688 61.0153 26.6842C61.03 26.6997 61.3198 27.4987 61.6592 28.4599Z" fill="black"/>
</svg>
