<svg width="21" height="24" viewBox="0 0 21 24" fill="none" xmlns="http://www.w3.org/2000/svg">
<path d="M13.9024 11.4333C13.9024 12.1246 13.3924 12.6913 12.7464 12.6913C12.1118 12.6913 11.5904 12.1246 11.5904 11.4333C11.5904 10.742 12.1004 10.1753 12.7464 10.1753C13.3924 10.1753 13.9024 10.742 13.9024 11.4333ZM8.60976 10.1753C7.96376 10.1753 7.45376 10.742 7.45376 11.4333C7.45376 12.1246 7.9751 12.6913 8.60976 12.6913C9.25576 12.6913 9.76576 12.1246 9.76576 11.4333C9.7771 10.742 9.25576 10.1753 8.60976 10.1753ZM20.5778 3.00129V23.3333C17.7226 20.8101 18.6357 21.6453 15.3191 18.562L15.9198 20.6586H3.06776C1.7871 20.6586 0.744431 19.616 0.744431 18.324V3.00129C0.744431 1.70929 1.7871 0.666626 3.06776 0.666626H18.2544C19.5351 0.666626 20.5778 1.70929 20.5778 3.00129ZM17.3478 13.7453C17.3478 10.096 15.7158 7.13796 15.7158 7.13796C14.0838 5.91396 12.5311 5.94796 12.5311 5.94796L12.3724 6.12929C14.2991 6.71863 15.1944 7.56863 15.1944 7.56863C12.5023 6.09312 9.33988 6.09286 6.72843 7.23996C6.3091 7.43263 6.05976 7.56863 6.05976 7.56863C6.05976 7.56863 7.00043 6.67329 9.04043 6.08396L8.9271 5.94796C8.9271 5.94796 7.37443 5.91396 5.74243 7.13796C5.74243 7.13796 4.11043 10.096 4.11043 13.7453C4.11043 13.7453 5.06243 15.3886 7.5671 15.468C7.5671 15.468 7.98643 14.958 8.32643 14.5273C6.8871 14.0966 6.3431 13.19 6.3431 13.19C6.50982 13.3067 6.78474 13.4579 6.80776 13.4733C8.72071 14.5446 11.438 14.8955 13.8798 13.87C14.2764 13.7226 14.7184 13.5073 15.1831 13.2013C15.1831 13.2013 14.6164 14.1306 13.1318 14.55C13.4718 14.9806 13.8798 15.468 13.8798 15.468C16.3844 15.3886 17.3478 13.7453 17.3478 13.7453Z" fill="#E7EAED"/>
</svg>
