<svg width="23" height="23" viewBox="0 0 23 23" fill="none" xmlns="http://www.w3.org/2000/svg">
<path d="M0.0110413 9.625C0.0123792 8.1082 1.24452 6.87608 2.76347 6.87742L5.51346 6.87985L5.50861 12.3798C5.5066 14.6572 7.31396 16.5064 9.62997 16.5085L15.13 16.5133L15.1275 19.2633C15.1262 20.7801 13.8919 22.0122 12.3751 22.0109L2.75012 22.0024C1.23118 22.0011 0.00121348 20.7668 0.0025514 19.25L0.0110413 9.625ZM9.63119 15.1335C8.11439 15.1321 6.88227 13.8979 6.88361 12.3811L6.8921 2.75606C6.89344 1.23712 8.12773 0.007152 9.64453 0.00848992L19.2695 0.0169798C20.7863 0.0183178 22.0184 1.25046 22.0171 2.7694L22.0086 12.3944C22.0073 13.9112 20.773 15.1433 19.2562 15.142L9.63119 15.1335Z" fill="white"/>
</svg>
