<svg width="19" height="23" viewBox="0 0 19 23" fill="none" xmlns="http://www.w3.org/2000/svg">
<g clip-path="url(#clip0_258_4844)">
<path d="M6.75603 0.242187C7.08683 -0.0857428 7.6 -0.0812507 7.9308 0.246679C9.10134 1.41016 10.1998 2.66348 11.2261 4.02012C11.6926 3.37324 12.2228 2.66797 12.7953 2.09297C13.1304 1.76055 13.6478 1.76055 13.9828 2.09746C15.4502 3.57988 16.6929 5.53848 17.5665 7.39824C18.4275 9.23105 19 11.1043 19 12.425C19 18.157 14.7674 22.9996 9.5 22.9996C4.17321 22.9996 0 18.1525 0 12.4205C0 10.6955 0.754911 8.58867 1.92545 6.5043C3.10871 4.38848 4.77969 2.18281 6.75603 0.242187ZM9.5721 18.6871C10.6451 18.6871 11.5951 18.3727 12.49 17.7437C14.2754 16.423 14.7547 13.7816 13.6817 11.7062C13.5629 11.4547 13.4442 11.2031 13.2661 10.9516L11.1201 13.593C11.1201 13.593 7.66786 8.93906 7.42612 8.62461C5.64487 10.9516 4.75 12.2723 4.75 13.7816C4.75 16.8633 6.89598 18.6871 9.5721 18.6871Z" fill="white"/>
</g>
<defs>
<clipPath id="clip0_258_4844">
<rect width="19" height="23" fill="white"/>
</clipPath>
</defs>
</svg>
