<svg width="25" height="20" viewBox="0 0 25 20" fill="none" xmlns="http://www.w3.org/2000/svg">
<path d="M3.34839 4.47486C3.37757 4.1879 3.26571 3.90095 3.05171 3.7064L0.858206 1.06058V0.666626H7.67704L12.9492 12.2275L17.5843 0.666626H24.087V1.06058L22.2096 2.86013C22.0491 2.98172 21.9664 3.18599 22.0005 3.3854V16.6145C21.9664 16.8139 22.0491 17.0182 22.2096 17.1398L24.0432 18.9393V19.3333H14.8169V18.9393L16.7186 17.096C16.9034 16.9112 16.9034 16.8528 16.9034 16.5707V5.88045L11.6166 19.2992H10.9016L4.75399 5.88045V14.8733C4.70049 15.2527 4.82694 15.6321 5.09444 15.9044L7.56517 18.9004V19.2944H0.561523V18.9053L3.03226 15.9044C3.29489 15.6321 3.41648 15.2478 3.34839 14.8733V4.47486Z" fill="white"/>
</svg>
