<svg width="23" height="23" viewBox="0 0 23 23" fill="none" xmlns="http://www.w3.org/2000/svg">
<g clip-path="url(#clip0_258_4848)">
<path d="M1.3871 7.56367L17.3199 7.57728L14.8523 10.0407C14.3147 10.5774 14.3139 11.4475 14.8506 11.9851C15.1159 12.2547 15.4681 12.3882 15.8205 12.3885C16.1728 12.3888 16.5244 12.2548 16.7928 11.9865L21.6094 7.17811C22.147 6.64146 22.1477 5.77134 21.611 5.23378L16.8027 0.417167C16.266 -0.120401 15.3959 -0.121144 14.8583 0.415506C14.3208 0.952157 14.32 1.82227 14.8567 2.35984L17.3223 4.82728L1.38944 4.81367C0.629327 4.81302 0.0139194 5.42738 0.0132702 6.1875C0.012621 6.94761 0.626978 7.56302 1.3871 7.56367ZM20.6312 14.4551L4.70271 14.4415L7.17036 11.9781C7.70793 11.4414 7.70867 10.5713 7.17202 10.0337C6.63537 9.49616 5.76525 9.49542 5.22768 10.0321L0.411075 14.8405C-0.126492 15.3771 -0.127236 16.2472 0.409415 16.7848L5.2178 21.6014C5.48269 21.8715 5.83492 22.005 6.18726 22.0053C6.53961 22.0056 6.89121 21.8716 7.15956 21.6033C7.69713 21.0666 7.69787 20.1965 7.16122 19.6589L4.70036 17.1915L20.6289 17.2051C21.389 17.2058 22.0044 16.5914 22.005 15.8313C22.0057 15.0712 21.3918 14.4558 20.6312 14.4551Z" fill="white"/>
</g>
<defs>
<clipPath id="clip0_258_4848">
<rect width="22" height="22" fill="white" transform="translate(0.0185547) rotate(0.0489342)"/>
</clipPath>
</defs>
</svg>
