<svg width="19" height="21" viewBox="0 0 19 21" fill="none" xmlns="http://www.w3.org/2000/svg">
<g clip-path="url(#clip0_258_4830)">
<path d="M6.10714 5.90625V7.875H12.8929V5.90625C12.8929 4.09336 11.3746 2.625 9.5 2.625C7.62545 2.625 6.10714 4.09336 6.10714 5.90625ZM3.39286 7.875V5.90625C3.39286 2.64551 6.12835 0 9.5 0C12.8717 0 15.6071 2.64551 15.6071 5.90625V7.875H16.2857C17.7828 7.875 19 9.05215 19 10.5V18.375C19 19.8229 17.7828 21 16.2857 21H2.71429C1.21719 21 0 19.8229 0 18.375V10.5C0 9.05215 1.21719 7.875 2.71429 7.875H3.39286Z" fill="white"/>
</g>
<defs>
<clipPath id="clip0_258_4830">
<rect width="19" height="21" fill="white"/>
</clipPath>
</defs>
</svg>
