<svg width="20" height="16" viewBox="0 0 20 16" fill="none" xmlns="http://www.w3.org/2000/svg">
<path d="M19.4253 2.24274C18.7316 2.54563 17.9861 2.75037 17.2036 2.84242C18.0022 2.37109 18.6156 1.62474 18.9044 0.735361C18.157 1.17186 17.3291 1.48878 16.448 1.65955C15.7425 0.919365 14.7372 0.456909 13.6246 0.456909C11.4884 0.456909 9.75646 2.16203 9.75646 4.26529C9.75646 4.56379 9.79067 4.85446 9.85662 5.13324C6.64186 4.97436 3.79163 3.45817 1.88384 1.15395C1.55088 1.71643 1.36009 2.37065 1.36009 3.06863C1.36009 4.38997 2.04296 5.5557 3.08089 6.23867C2.44681 6.21887 1.85037 6.04756 1.3289 5.76229C1.32853 5.77817 1.32853 5.79413 1.32853 5.81019C1.32853 7.65544 2.6619 9.19469 4.43138 9.54464C4.10685 9.63165 3.76508 9.67828 3.4123 9.67828C3.16304 9.67828 2.92074 9.65435 2.68451 9.6099C3.17678 11.1229 4.60526 12.2241 6.29793 12.2548C4.97409 13.2763 3.30621 13.8851 1.49391 13.8851C1.18168 13.8851 0.873789 13.8671 0.571167 13.8318C2.28298 14.9125 4.31623 15.543 6.50064 15.543C13.6155 15.543 17.5062 9.7397 17.5062 4.70689C17.5062 4.54178 17.5024 4.37754 17.495 4.21416C18.2509 3.6772 18.9067 3.00645 19.4253 2.24274Z" fill="#E7EAED"/>
</svg>
