<svg width="24" height="24" viewBox="0 0 24 24" fill="none" xmlns="http://www.w3.org/2000/svg">
<g clip-path="url(#clip0_258_4846)">
<path d="M8.64182 4.32059L14.3922 4.32566L16.5244 1.1325C16.8438 0.654785 16.5029 0.014758 15.9279 0.0142508L7.11369 0.00647602C6.53866 0.0059688 6.19667 0.645394 6.51521 1.12367L8.64182 4.32059ZM14.3909 5.76325L8.64055 5.75817C8.46973 5.87033 8.27645 5.99595 8.09663 6.13506C5.50753 7.76354 0.0101587 11.2718 0.00361639 18.6888C0.00151618 21.0698 1.93157 23.0033 4.31257 23.0054L18.6884 23.0181C21.0703 23.0202 23.0029 21.0901 23.005 18.7091C23.0115 11.2921 17.5204 7.77414 14.9746 6.14113C14.7546 6.00167 14.5615 5.87571 14.3909 5.76325ZM10.6089 10.0727C10.6094 9.57401 11.0141 9.17004 11.5531 9.17052C12.0114 9.17092 12.4153 9.5756 12.4149 10.0743L12.4147 10.3438C12.6662 10.3979 12.9447 10.4746 13.1288 10.5736C13.7979 10.8796 14.3814 11.4462 14.5244 12.2684C14.6049 12.7267 14.5596 13.1715 14.3705 13.5711C14.1815 13.9663 13.8892 14.2446 13.5926 14.4465C13.0711 14.8009 12.3836 15.007 11.8578 15.1637L11.759 15.1906C11.1299 15.3832 10.7075 15.5221 10.4422 15.7151C10.3298 15.7958 10.2894 15.8587 10.2758 15.8991C10.2578 15.935 10.2308 16.0159 10.2621 16.1956C10.2889 16.3529 10.3742 16.4877 10.6212 16.5912C10.8951 16.7083 11.3398 16.7671 11.9149 16.6777C12.1845 16.6331 12.6653 16.4718 13.0922 16.3284C13.1911 16.2925 13.29 16.2612 13.3798 16.2298C13.8517 16.073 14.3591 16.3295 14.5159 16.8013C14.6728 17.2732 14.4162 17.7806 13.9444 17.897C13.8905 17.9553 13.8231 17.9777 13.7467 18.0046C13.4321 18.1257 12.8344 18.3138 12.4075 18.4123L12.4073 18.6998C12.4069 19.1984 12.0022 19.6024 11.5439 19.602C11.0048 19.6015 10.6009 19.1969 10.6013 18.6982L10.6015 18.4511C10.3635 18.406 10.13 18.2979 9.91438 18.2438C9.20484 17.9422 8.6393 17.3577 8.4918 16.504C8.41135 16.0367 8.44769 15.5875 8.62774 15.1789C8.80331 14.7747 9.08659 14.4784 9.38778 14.2631C9.93172 13.8637 10.6597 13.6487 11.2034 13.483L11.2798 13.4741C11.8775 13.2814 12.3089 13.147 12.5831 12.9586C12.6999 12.8778 12.7359 12.8239 12.7449 12.8015C12.7539 12.7835 12.7809 12.7296 12.7541 12.5769C12.7362 12.487 12.669 12.3387 12.3861 12.2127C12.1346 12.0821 11.6495 12.0098 11.1014 12.0543C10.9036 12.126 10.297 12.2423 10.1218 12.287C9.64548 12.4169 9.15156 12.1289 9.0262 11.6481C8.89634 11.1718 9.18429 10.6779 9.66509 10.5525C9.86281 10.4988 10.3121 10.4093 10.6087 10.3557L10.6089 10.0727Z" fill="white"/>
</g>
<defs>
<clipPath id="clip0_258_4846">
<rect width="23.0014" height="23.0014" transform="matrix(-1 -0.00088207 -0.00088207 1 23.0215 0.0205078)" fill="white"/>
</clipPath>
</defs>
</svg>
