<svg width="1440" height="819" viewBox="0 0 1440 819" fill="none" xmlns="http://www.w3.org/2000/svg">
<g clip-path="url(#clip0_670_21344)">
<rect width="1440" height="819" fill="white"/>
<path fill-rule="evenodd" clip-rule="evenodd" d="M380.856 633.501V697.988H316.369V633.501H380.856ZM250.882 697.988H315.369V633.501H250.882V697.988ZM380.856 632.501H316.369V568.014H380.856V632.501ZM315.369 632.501V568.014H250.882V632.501H315.369ZM380.856 567.014H316.369V502.527H380.856V567.014ZM316.369 437.04V501.527H380.856V437.04H316.369ZM381.856 437.04V501.527H446.343V437.04H381.856ZM446.343 436.04H381.856V375H380.856V436.04H316.369V375H315.369V436.04H250.882V375H249.882V436.04H185.395V376.723H184.395V436.04H119.908V376.723H118.908V436.04H54.4207V376.723H53.4207V436.04H-11.0663V376.723H-12.0663V436.04H-81V437.04H-12.0663V501.527H-81V502.527H-12.0663V567.014H-81V568.014H-12.0663V632.501H-81V633.501H-12.0663V697.988H-81V698.988H-12.0663V763.475H-81V764.475H-12.0663V828.963H-81V829.963H-12.0663V894.45H-81V895.45H-12.0663V955.767H-11.0663V895.45H53.4207V955.767H54.4207V895.45H118.908V954.043H119.908V895.45H184.395V954.043H185.395V895.45H249.882V954.043H250.882V895.45H315.369V954.043H316.369V895.45H380.856V954.043H381.856V895.45H446.343V954.043H447.343V895.45H517V894.45H447.343V829.963H517V828.963H447.343V764.475H517V763.475H447.343V698.988H517V697.988H447.343V633.501H517V632.501H447.343V568.014H517V567.014H447.343V502.527H517V501.527H447.343V437.04H517V436.04H447.343V375H446.343V436.04ZM446.343 502.527H381.856V567.014H446.343V502.527ZM446.343 568.014H381.856V632.501H446.343V568.014ZM446.343 633.501H381.856V697.988H446.343V633.501ZM446.343 698.988H381.856V763.475H446.343V698.988ZM446.343 764.475H381.856V828.963H446.343V764.475ZM446.343 829.963H381.856V894.45H446.343V829.963ZM-11.0663 567.014V502.527H53.4207V567.014H-11.0663ZM54.4207 567.014V502.527H118.908V567.014H54.4207ZM54.4207 501.527H118.908V437.04H54.4207V501.527ZM119.908 567.014V502.527H184.395V567.014H119.908ZM119.908 501.527H184.395V437.04H119.908V501.527ZM185.395 567.014V502.527H249.882V567.014H185.395ZM185.395 501.527H249.882V437.04H185.395V501.527ZM250.882 437.04V501.527H315.369V437.04H250.882ZM315.369 502.527H250.882V567.014H315.369V502.527ZM-11.0663 501.527H53.4207V437.04H-11.0663V501.527ZM-11.0663 568.014H53.4207V632.501H-11.0663V568.014ZM-11.0663 633.501H53.4207V697.988H-11.0663V633.501ZM-11.0663 698.988V763.475H53.4207V698.988H-11.0663ZM-11.0663 764.475V828.963H53.4207V764.475H-11.0663ZM-11.0663 829.963V894.45H53.4207V829.963H-11.0663ZM249.882 894.45H185.395V829.963H249.882V894.45ZM249.882 828.963H185.395V764.475H249.882V828.963ZM184.395 828.963V764.475H119.908V828.963H184.395ZM249.882 763.475H185.395V698.988H249.882V763.475ZM184.395 763.475V698.988H119.908V763.475H184.395ZM119.908 697.988H184.395V633.501H119.908V697.988ZM185.395 633.501V697.988H249.882V633.501H185.395ZM249.882 632.501H185.395V568.014H249.882V632.501ZM184.395 568.014V632.501H119.908V568.014H184.395ZM184.395 894.45V829.963H119.908V894.45H184.395ZM54.4207 764.475V828.963H118.908V764.475H54.4207ZM118.908 763.475H54.4207V698.988H118.908V763.475ZM250.882 764.475V828.963H315.369V764.475H250.882ZM315.369 763.475H250.882V698.988H315.369V763.475ZM316.369 764.475V828.963H380.856V764.475H316.369ZM380.856 763.475H316.369V698.988H380.856V763.475ZM54.4207 697.988H118.908V633.501H54.4207V697.988ZM118.908 568.014V632.501H54.4207V568.014H118.908ZM118.908 894.45V829.963H54.4207V894.45H118.908ZM250.882 829.963V894.45H315.369V829.963H250.882ZM316.369 829.963V894.45H380.856V829.963H316.369Z" fill="url(#paint0_radial_670_21344)" fill-opacity="0.5"/>
<path fill-rule="evenodd" clip-rule="evenodd" d="M1435.86 188.501V252.988H1371.37V188.501H1435.86ZM1305.88 252.988H1370.37V188.501H1305.88V252.988ZM1435.86 187.501H1371.37V123.014H1435.86V187.501ZM1370.37 187.501V123.014H1305.88V187.501H1370.37ZM1435.86 122.014H1371.37V57.5274H1435.86V122.014ZM1371.37 -7.95971V56.5274H1435.86V-7.95971H1371.37ZM1436.86 -7.95971V56.5274H1501.34V-7.95971H1436.86ZM1501.34 -8.95971H1436.86V-70H1435.86V-8.95971H1371.37V-70H1370.37V-8.95971H1305.88V-70H1304.88V-8.95971H1240.39V-68.2767H1239.39V-8.95971H1174.91V-68.2767H1173.91V-8.95971H1109.42V-68.2767H1108.42V-8.95971H1043.93V-68.2767H1042.93V-8.95971H974V-7.95971H1042.93V56.5274H974V57.5274H1042.93V122.014H974V123.014H1042.93V187.501H974V188.501H1042.93V252.988H974V253.988H1042.93V318.475H974V319.475H1042.93V383.963H974V384.963H1042.93V449.45H974V450.45H1042.93V510.767H1043.93V450.45H1108.42V510.767H1109.42V450.45H1173.91V509.043H1174.91V450.45H1239.39V509.043H1240.39V450.45H1304.88V509.043H1305.88V450.45H1370.37V509.043H1371.37V450.45H1435.86V509.043H1436.86V450.45H1501.34V509.043H1502.34V450.45H1572V449.45H1502.34V384.963H1572V383.963H1502.34V319.475H1572V318.475H1502.34V253.988H1572V252.988H1502.34V188.501H1572V187.501H1502.34V123.014H1572V122.014H1502.34V57.5274H1572V56.5274H1502.34V-7.95971H1572V-8.95971H1502.34V-70H1501.34V-8.95971ZM1501.34 57.5274H1436.86V122.014H1501.34V57.5274ZM1501.34 123.014H1436.86V187.501H1501.34V123.014ZM1501.34 188.501H1436.86V252.988H1501.34V188.501ZM1501.34 253.988H1436.86V318.475H1501.34V253.988ZM1501.34 319.475H1436.86V383.963H1501.34V319.475ZM1501.34 384.963H1436.86V449.45H1501.34V384.963ZM1043.93 122.014V57.5274H1108.42V122.014H1043.93ZM1109.42 122.014V57.5274H1173.91V122.014H1109.42ZM1109.42 56.5274H1173.91V-7.95971H1109.42V56.5274ZM1174.91 122.014V57.5274H1239.39V122.014H1174.91ZM1174.91 56.5274H1239.39V-7.95971H1174.91V56.5274ZM1240.39 122.014V57.5274H1304.88V122.014H1240.39ZM1240.39 56.5274H1304.88V-7.95971H1240.39V56.5274ZM1305.88 -7.95971V56.5274H1370.37V-7.95971H1305.88ZM1370.37 57.5274H1305.88V122.014H1370.37V57.5274ZM1043.93 56.5274H1108.42V-7.95971H1043.93V56.5274ZM1043.93 123.014H1108.42V187.501H1043.93V123.014ZM1043.93 188.501H1108.42V252.988H1043.93V188.501ZM1043.93 253.988V318.475H1108.42V253.988H1043.93ZM1043.93 319.475V383.963H1108.42V319.475H1043.93ZM1043.93 384.963V449.45H1108.42V384.963H1043.93ZM1304.88 449.45H1240.39V384.963H1304.88V449.45ZM1304.88 383.963H1240.39V319.475H1304.88V383.963ZM1239.39 383.963V319.475H1174.91V383.963H1239.39ZM1304.88 318.475H1240.39V253.988H1304.88V318.475ZM1239.39 318.475V253.988H1174.91V318.475H1239.39ZM1174.91 252.988H1239.39V188.501H1174.91V252.988ZM1240.39 188.501V252.988H1304.88V188.501H1240.39ZM1304.88 187.501H1240.39V123.014H1304.88V187.501ZM1239.39 123.014V187.501H1174.91V123.014H1239.39ZM1239.39 449.45V384.963H1174.91V449.45H1239.39ZM1109.42 319.475V383.963H1173.91V319.475H1109.42ZM1173.91 318.475H1109.42V253.988H1173.91V318.475ZM1305.88 319.475V383.963H1370.37V319.475H1305.88ZM1370.37 318.475H1305.88V253.988H1370.37V318.475ZM1371.37 319.475V383.963H1435.86V319.475H1371.37ZM1435.86 318.475H1371.37V253.988H1435.86V318.475ZM1109.42 252.988H1173.91V188.501H1109.42V252.988ZM1173.91 123.014V187.501H1109.42V123.014H1173.91ZM1173.91 449.45V384.963H1109.42V449.45H1173.91ZM1305.88 384.963V449.45H1370.37V384.963H1305.88ZM1371.37 384.963V449.45H1435.86V384.963H1371.37Z" fill="url(#paint1_radial_670_21344)" fill-opacity="0.5"/>
</g>
<defs>
<radialGradient id="paint0_radial_670_21344" cx="0" cy="0" r="1" gradientUnits="userSpaceOnUse" gradientTransform="translate(218 665.383) rotate(90) scale(290.383 299)">
<stop stop-color="#9193D2"/>
<stop offset="1" stop-color="white" stop-opacity="0"/>
</radialGradient>
<radialGradient id="paint1_radial_670_21344" cx="0" cy="0" r="1" gradientUnits="userSpaceOnUse" gradientTransform="translate(1273 220.383) rotate(90) scale(290.383 299)">
<stop stop-color="#9193D2"/>
<stop offset="1" stop-color="white" stop-opacity="0"/>
</radialGradient>
<clipPath id="clip0_670_21344">
<rect width="1440" height="819" fill="white"/>
</clipPath>
</defs>
</svg>
