<svg width="196" height="21" viewBox="0 0 196 21" fill="none" xmlns="http://www.w3.org/2000/svg">
<path fill-rule="evenodd" clip-rule="evenodd" d="M9.03795 9.71578C9.41232 9.71578 9.7158 9.4123 9.7158 9.03793V0.677845C9.7158 0.303482 9.41232 0 9.03795 0H4.85791C2.17497 0 2.19345e-05 2.17495 2.19345e-05 4.85789C2.19345e-05 7.54083 2.17497 9.71578 4.85791 9.71578H9.03795ZM10.9303 0.67785C10.9303 0.303486 11.2338 5.72205e-06 11.6081 5.72205e-06H15.7882C18.4711 5.72205e-06 20.6461 2.17496 20.6461 4.85789C20.6461 7.54083 18.4711 9.71578 15.7882 9.71578H11.6081C11.2338 9.71578 10.9303 9.4123 10.9303 9.03794V0.67785ZM46.0657 7.01459C45.5964 6.63326 45.127 6.35459 44.6577 6.17859C44.1884 5.98793 43.7337 5.89259 43.2937 5.89259C42.7364 5.89259 42.2817 6.02459 41.9297 6.28859C41.5777 6.55259 41.4017 6.89726 41.4017 7.32259C41.4017 7.61593 41.4897 7.85793 41.6657 8.0486C41.8417 8.23926 42.069 8.40793 42.3477 8.55459C42.641 8.68659 42.9637 8.80393 43.3157 8.9066C43.6824 9.00926 44.0417 9.11926 44.3937 9.2366C45.8017 9.70593 46.8284 10.3366 47.4737 11.1286C48.1337 11.9059 48.4637 12.9253 48.4637 14.1866C48.4637 15.0373 48.317 15.8073 48.0237 16.4966C47.745 17.1859 47.327 17.7799 46.7697 18.2786C46.227 18.7626 45.5524 19.1366 44.7457 19.4006C43.9537 19.6793 43.0517 19.8186 42.0397 19.8186C39.9424 19.8186 37.999 19.1953 36.2097 17.9486L38.0577 14.4726C38.703 15.0446 39.341 15.4699 39.9717 15.7486C40.6024 16.0273 41.2257 16.1666 41.8417 16.1666C42.5457 16.1666 43.0664 16.0053 43.4037 15.6826C43.7557 15.3599 43.9317 14.9933 43.9317 14.5826C43.9317 14.3333 43.8877 14.1206 43.7997 13.9446C43.7117 13.7539 43.565 13.5853 43.3597 13.4386C43.1544 13.2773 42.883 13.1306 42.5457 12.9986C42.223 12.8666 41.827 12.7199 41.3577 12.5586C40.8004 12.3826 40.2504 12.1919 39.7077 11.9866C39.1797 11.7666 38.703 11.4806 38.2777 11.1286C37.867 10.7766 37.5297 10.3366 37.2657 9.80859C37.0163 9.26593 36.8917 8.58393 36.8917 7.7626C36.8917 6.94126 37.0237 6.20059 37.2877 5.5406C37.5664 4.86593 37.9477 4.29393 38.4317 3.82459C38.9304 3.34059 39.5317 2.96659 40.2357 2.70259C40.9544 2.43859 41.7537 2.30659 42.6337 2.30659C43.455 2.30659 44.313 2.42393 45.2077 2.65859C46.1024 2.87859 46.9604 3.20859 47.7817 3.64859L46.0657 7.01459ZM57.5798 6.4206V19.3566H53.2678V6.4206H49.7258V2.7686H61.1218V6.4206H57.5798ZM71.2863 13.1966L69.3503 7.67459L67.4143 13.1966H71.2863ZM72.4303 16.4746H66.2703L65.2803 19.3566H60.6823L66.9963 2.7686H71.7043L78.0183 19.3566H73.4203L72.4303 16.4746ZM84.2169 10.1826H85.031C85.8816 10.1826 86.5343 10.0066 86.989 9.6546C87.4436 9.3026 87.671 8.79659 87.671 8.13659C87.671 7.47659 87.4436 6.97059 86.989 6.61859C86.5343 6.26659 85.8816 6.09059 85.031 6.09059H84.2169V10.1826ZM93.699 19.3566H88.3309L84.2169 12.9766V19.3566H79.905V2.7686H86.615C87.5389 2.7686 88.3456 2.90793 89.035 3.18659C89.7243 3.4506 90.2889 3.81726 90.729 4.28659C91.1836 4.75593 91.521 5.29859 91.741 5.9146C91.9756 6.5306 92.0929 7.1906 92.0929 7.89459C92.0929 9.15593 91.785 10.1826 91.169 10.9746C90.5676 11.7519 89.673 12.2799 88.4849 12.5586L93.699 19.3566ZM99.8146 9.61059L105.073 2.7686H110.397L103.819 10.6226L111.013 19.3566H105.425L99.8146 12.1626V19.3566H95.5026V2.7686H99.8146V9.61059ZM117.238 16.0126H118.184C119.27 16.0126 120.047 15.8733 120.516 15.5946C120.986 15.3159 121.22 14.8686 121.22 14.2526C121.22 13.6366 120.986 13.1893 120.516 12.9106C120.047 12.6319 119.27 12.4926 118.184 12.4926H117.238V16.0126ZM117.238 9.28059H118.03C119.38 9.28059 120.054 8.74526 120.054 7.67459C120.054 6.60393 119.38 6.06859 118.03 6.06859H117.238V9.28059ZM112.926 2.7686H119.35C120.876 2.7686 122.034 3.13526 122.826 3.86859C123.618 4.60193 124.014 5.65793 124.014 7.0366C124.014 7.87259 123.86 8.56926 123.552 9.12659C123.259 9.66926 122.804 10.1313 122.188 10.5126C122.804 10.6299 123.325 10.8133 123.75 11.0626C124.19 11.2973 124.542 11.5906 124.806 11.9426C125.085 12.2946 125.283 12.6906 125.4 13.1306C125.518 13.5706 125.576 14.0399 125.576 14.5386C125.576 15.3159 125.437 16.0053 125.158 16.6066C124.894 17.2079 124.513 17.7139 124.014 18.1246C123.53 18.5353 122.936 18.8433 122.232 19.0486C121.528 19.2539 120.736 19.3566 119.856 19.3566H112.926V2.7686ZM131.792 11.0626C131.792 11.7226 131.917 12.3313 132.166 12.8886C132.415 13.4459 132.753 13.9299 133.178 14.3406C133.603 14.7513 134.095 15.0739 134.652 15.3086C135.224 15.5286 135.825 15.6386 136.456 15.6386C137.087 15.6386 137.681 15.5286 138.238 15.3086C138.81 15.0739 139.309 14.7513 139.734 14.3406C140.174 13.9299 140.519 13.4459 140.768 12.8886C141.017 12.3313 141.142 11.7226 141.142 11.0626C141.142 10.4026 141.017 9.79393 140.768 9.2366C140.519 8.67926 140.174 8.19526 139.734 7.78459C139.309 7.37393 138.81 7.05859 138.238 6.8386C137.681 6.60393 137.087 6.48659 136.456 6.48659C135.825 6.48659 135.224 6.60393 134.652 6.8386C134.095 7.05859 133.603 7.37393 133.178 7.78459C132.753 8.19526 132.415 8.67926 132.166 9.2366C131.917 9.79393 131.792 10.4026 131.792 11.0626ZM127.282 11.0626C127.282 9.8306 127.509 8.68659 127.964 7.63059C128.419 6.55993 129.049 5.62859 129.856 4.83659C130.663 4.04459 131.623 3.42859 132.738 2.9886C133.867 2.53393 135.107 2.30659 136.456 2.30659C137.791 2.30659 139.023 2.53393 140.152 2.9886C141.281 3.42859 142.249 4.04459 143.056 4.83659C143.877 5.62859 144.515 6.55993 144.97 7.63059C145.425 8.68659 145.652 9.8306 145.652 11.0626C145.652 12.2946 145.425 13.4459 144.97 14.5166C144.515 15.5726 143.877 16.4966 143.056 17.2886C142.249 18.0806 141.281 18.7039 140.152 19.1586C139.023 19.5986 137.791 19.8186 136.456 19.8186C135.107 19.8186 133.867 19.5986 132.738 19.1586C131.623 18.7039 130.663 18.0806 129.856 17.2886C129.049 16.4966 128.419 15.5726 127.964 14.5166C127.509 13.4459 127.282 12.2946 127.282 11.0626ZM156.751 13.1966L154.815 7.67459L152.879 13.1966H156.751ZM157.895 16.4746H151.735L150.745 19.3566H146.147L152.461 2.7686H157.169L163.483 19.3566H158.885L157.895 16.4746ZM169.682 10.1826H170.496C171.346 10.1826 171.999 10.0066 172.454 9.6546C172.908 9.3026 173.136 8.79659 173.136 8.13659C173.136 7.47659 172.908 6.97059 172.454 6.61859C171.999 6.26659 171.346 6.09059 170.496 6.09059H169.682V10.1826ZM179.164 19.3566H173.796L169.682 12.9766V19.3566H165.37V2.7686H172.08C173.004 2.7686 173.81 2.90793 174.5 3.18659C175.189 3.4506 175.754 3.81726 176.194 4.28659C176.648 4.75593 176.986 5.29859 177.206 5.9146C177.44 6.5306 177.558 7.1906 177.558 7.89459C177.558 9.15593 177.25 10.1826 176.634 10.9746C176.032 11.7519 175.138 12.2799 173.95 12.5586L179.164 19.3566ZM185.279 15.7046H186.269C187.017 15.7046 187.685 15.5873 188.271 15.3526C188.858 15.1179 189.349 14.7953 189.745 14.3846C190.156 13.9739 190.464 13.4899 190.669 12.9326C190.889 12.3606 190.999 11.7373 190.999 11.0626C190.999 10.4026 190.889 9.78659 190.669 9.21459C190.449 8.6426 190.134 8.15126 189.723 7.7406C189.327 7.32993 188.836 7.00726 188.249 6.77259C187.663 6.53793 187.003 6.4206 186.269 6.4206H185.279V15.7046ZM180.967 2.7686H187.347C188.477 2.7686 189.533 2.99593 190.515 3.45059C191.513 3.90526 192.378 4.51393 193.111 5.27659C193.859 6.02459 194.446 6.90459 194.871 7.91659C195.297 8.91393 195.509 9.96259 195.509 11.0626C195.509 12.1479 195.297 13.1966 194.871 14.2086C194.461 15.2059 193.881 16.0859 193.133 16.8486C192.4 17.6113 191.535 18.2199 190.537 18.6746C189.555 19.1293 188.491 19.3566 187.347 19.3566H180.967V2.7686ZM11.6081 10.9303C11.2338 10.9303 10.9303 11.2337 10.9303 11.6081V19.9682C10.9303 20.3425 11.2338 20.646 11.6081 20.646H15.7882C18.4711 20.646 20.6461 18.4711 20.6461 15.7881C20.6461 13.1052 18.4711 10.9303 15.7882 10.9303H11.6081ZM0 11.6081C0 11.2337 0.303482 10.9303 0.677845 10.9303H4.85789C7.54083 10.9303 9.71578 13.1052 9.71578 15.7881C9.71578 18.4711 7.54082 20.646 4.85789 20.646H0.677844C0.303481 20.646 0 20.3425 0 19.9682V11.6081Z" fill="white"/>
</svg>
