<svg width="250" height="104" viewBox="0 0 250 104" fill="none" xmlns="http://www.w3.org/2000/svg">
<path d="M101.305 75.2727H102.902L104.001 77.9503H104.056L105.155 75.2727H106.752V80H105.496V77.267H105.46L104.407 79.9631H103.65L102.597 77.2486H102.56V80H101.305V75.2727ZM109.563 80H108.178L109.739 75.2727H111.493L113.053 80H111.668L110.634 76.5746H110.597L109.563 80ZM109.305 78.1349H111.909V79.0952H109.305V78.1349ZM113.758 76.3068V75.2727H117.866V76.3068H116.445V80H115.18V76.3068H113.758ZM123.516 77.0455H122.214C122.205 76.9377 122.18 76.84 122.14 76.7523C122.101 76.6646 122.048 76.5892 121.978 76.5261C121.911 76.4615 121.828 76.4122 121.731 76.3784C121.634 76.343 121.524 76.3253 121.401 76.3253C121.186 76.3253 121.003 76.3776 120.854 76.4822C120.706 76.5869 120.594 76.7369 120.517 76.9324C120.442 77.1278 120.404 77.3625 120.404 77.6364C120.404 77.9257 120.443 78.168 120.52 78.3635C120.598 78.5574 120.711 78.7035 120.859 78.802C121.007 78.899 121.184 78.9474 121.392 78.9474C121.511 78.9474 121.617 78.9328 121.711 78.9036C121.804 78.8728 121.886 78.829 121.955 78.772C122.024 78.7151 122.081 78.6466 122.124 78.5666C122.168 78.485 122.198 78.3935 122.214 78.2919L123.516 78.3011C123.5 78.5012 123.444 78.7051 123.347 78.9128C123.25 79.119 123.112 79.3098 122.934 79.4853C122.757 79.6592 122.538 79.7992 122.276 79.9054C122.014 80.0115 121.711 80.0646 121.364 80.0646C120.93 80.0646 120.541 79.9715 120.196 79.7853C119.853 79.5991 119.582 79.3252 119.382 78.9636C119.183 78.602 119.084 78.1596 119.084 77.6364C119.084 77.1101 119.185 76.6669 119.388 76.3068C119.592 75.9452 119.866 75.6721 120.21 75.4874C120.555 75.3012 120.94 75.2081 121.364 75.2081C121.663 75.2081 121.938 75.2489 122.188 75.3304C122.439 75.412 122.659 75.5312 122.849 75.6882C123.038 75.8436 123.19 76.0352 123.306 76.263C123.421 76.4907 123.491 76.7515 123.516 77.0455ZM125.073 80V75.2727H126.356V77.1193H128.055V75.2727H129.338V80H128.055V78.1534H126.356V80H125.073ZM130.923 80V75.2727H132.973C133.333 75.2727 133.635 75.3212 133.88 75.4181C134.126 75.5151 134.311 75.652 134.436 75.829C134.562 76.006 134.625 76.2145 134.625 76.4545C134.625 76.6284 134.587 76.7869 134.51 76.93C134.434 77.0732 134.328 77.1932 134.191 77.2901C134.054 77.3855 133.894 77.4517 133.711 77.4886V77.5348C133.914 77.5425 134.099 77.594 134.265 77.6895C134.431 77.7833 134.564 77.9134 134.662 78.0795C134.761 78.2442 134.81 78.4381 134.81 78.6612C134.81 78.9197 134.742 79.1498 134.607 79.3514C134.473 79.553 134.282 79.7115 134.034 79.8269C133.787 79.9423 133.491 80 133.148 80H130.923ZM132.206 78.9751H132.806C133.022 78.9751 133.183 78.9351 133.291 78.8551C133.399 78.7736 133.453 78.6535 133.453 78.495C133.453 78.3842 133.427 78.2904 133.377 78.2134C133.326 78.1365 133.253 78.078 133.16 78.038C133.067 77.998 132.956 77.978 132.825 77.978H132.206V78.9751ZM132.206 77.1839H132.733C132.845 77.1839 132.944 77.1663 133.03 77.1309C133.116 77.0955 133.183 77.0447 133.231 76.9785C133.28 76.9108 133.305 76.8285 133.305 76.7315C133.305 76.5853 133.253 76.4738 133.148 76.3968C133.043 76.3184 132.911 76.2791 132.751 76.2791H132.206V77.1839ZM140.819 77.6364C140.819 78.1626 140.717 78.6066 140.512 78.9682C140.308 79.3283 140.031 79.6014 139.684 79.7876C139.336 79.9723 138.948 80.0646 138.52 80.0646C138.089 80.0646 137.7 79.9715 137.352 79.7853C137.006 79.5976 136.731 79.3237 136.526 78.9636C136.323 78.602 136.221 78.1596 136.221 77.6364C136.221 77.1101 136.323 76.6669 136.526 76.3068C136.731 75.9452 137.006 75.6721 137.352 75.4874C137.7 75.3012 138.089 75.2081 138.52 75.2081C138.948 75.2081 139.336 75.3012 139.684 75.4874C140.031 75.6721 140.308 75.9452 140.512 76.3068C140.717 76.6669 140.819 77.1101 140.819 77.6364ZM139.499 77.6364C139.499 77.3532 139.461 77.1147 139.386 76.9208C139.312 76.7254 139.202 76.5777 139.056 76.4776C138.911 76.3761 138.733 76.3253 138.52 76.3253C138.308 76.3253 138.129 76.3761 137.982 76.4776C137.838 76.5777 137.728 76.7254 137.652 76.9208C137.578 77.1147 137.541 77.3532 137.541 77.6364C137.541 77.9195 137.578 78.1588 137.652 78.3542C137.728 78.5481 137.838 78.6958 137.982 78.7974C138.129 78.8974 138.308 78.9474 138.52 78.9474C138.733 78.9474 138.911 78.8974 139.056 78.7974C139.202 78.6958 139.312 78.5481 139.386 78.3542C139.461 78.1588 139.499 77.9195 139.499 77.6364ZM143.446 75.2727L144.222 76.6484H144.259L145.044 75.2727H146.475L145.062 77.6364L146.53 80H145.062L144.259 78.5966H144.222L143.419 80H141.96L143.409 77.6364L142.006 75.2727H143.446Z" fill="black"/>
<path fill-rule="evenodd" clip-rule="evenodd" d="M122.639 21.3388C121.941 21.579 117.49 23.7048 112.747 26.0626C103.584 30.6189 102.957 31.0683 101.989 33.7699C101.324 35.6262 101.355 56.6437 102.026 58.5369C102.806 60.7395 104.167 61.8431 109.228 64.375C111.8 65.6621 113.959 66.7151 114.026 66.7151C114.094 66.7151 113.261 65.8012 112.178 64.684C108.476 60.8682 106.74 56.2897 107.017 51.0723C107.284 46.0487 108.956 42.6347 113.102 38.6457C119.19 32.7884 121.993 29.3937 122.849 26.8429C123.043 26.2646 123.325 25.6559 123.476 25.4906C123.911 25.0147 126.169 27.4322 126.925 29.1836C128.475 32.7722 128.336 36.1226 126.406 41.6905C124.444 47.3465 124.702 50.0614 127.32 51.3353C128.474 51.8968 128.546 51.8968 129.7 51.3353C132.17 50.1331 133.275 45.9188 132.673 39.9932C132.478 38.0712 132.318 36.3205 132.318 36.1024C132.318 35.3882 135.523 37.4019 137.534 39.3798C140.906 42.6961 142.79 47.205 142.79 51.9622C142.79 56.8428 140.977 61.1706 137.468 64.6651C135.121 67.0023 135.059 67.0131 140.95 64.0656C145.53 61.7739 146.124 61.3204 147.199 59.2935C147.844 58.0781 147.867 57.6211 147.867 46.2477C147.867 33.3382 147.836 33.092 145.958 31.1593C145.394 30.5788 141.469 28.4485 135.899 25.6995C126.174 20.9002 125.019 20.5207 122.639 21.3388ZM119.682 47.0337C118.596 47.7874 116.283 51.1491 115.486 53.1331C114.57 55.4163 114.492 59.2135 115.313 61.6588C116.61 65.5234 119.283 68.7572 121.801 69.5083C123.705 70.0765 126.875 69.9548 128.425 69.2542C132.701 67.3212 135.733 60.7904 134.913 55.2829C134.731 54.0622 134.509 52.9912 134.42 52.9027C134.331 52.8142 133.572 53.3186 132.732 54.0236C129.983 56.3321 127.876 56.8023 125.472 55.6435C123.381 54.6354 121.937 52.2103 121.2 48.4652C120.986 47.3791 120.723 46.4977 120.614 46.5066C120.506 46.5157 120.086 46.753 119.682 47.0337Z" fill="black"/>
</svg>
