<svg width="250" height="104" viewBox="0 0 250 104" fill="none" xmlns="http://www.w3.org/2000/svg">
<rect width="26.3375" height="26.3402" transform="matrix(0.710704 -0.703492 0.715089 0.699033 27.7345 49.5282)" fill="black"/>
<rect width="26.3375" height="26.3402" transform="matrix(0.710704 -0.703492 0.715089 0.699033 27 54.5873)" fill="black"/>
<rect width="24.1919" height="24.1941" transform="matrix(0.710704 -0.703492 0.715089 0.699033 29.2711 49.5448)" fill="#FBFBFB"/>
<rect width="18.3934" height="18.2452" transform="matrix(0.710704 -0.703492 0.715089 0.699033 33.6823 49.7909)" fill="black"/>
<rect width="9.22266" height="9.32894" transform="matrix(0.710704 -0.703492 0.715089 0.699033 40.2257 49.7751)" fill="white"/>
<rect width="3.33806" height="3.56661" transform="matrix(0.710704 -0.703492 0.715089 0.699033 44.5284 49.8689)" fill="black"/>
<path d="M92.854 44.556V60H89.092V50.738L85.638 60H82.602L79.126 50.716V60H75.364V44.556H79.808L84.142 55.248L88.432 44.556H92.854ZM99.3213 44.556V60H95.5593V44.556H99.3213ZM115.864 60H112.102L105.81 50.474V60H102.048V44.556H105.81L112.102 54.126V44.556H115.864V60ZM129.701 44.556V47.57H125.609V60H121.847V47.57H117.755V44.556H129.701ZM137.177 60.154C136.047 60.154 135.035 59.9707 134.141 59.604C133.246 59.2373 132.527 58.6947 131.985 57.976C131.457 57.2573 131.178 56.392 131.149 55.38H135.153C135.211 55.952 135.409 56.392 135.747 56.7C136.084 56.9933 136.524 57.14 137.067 57.14C137.624 57.14 138.064 57.0153 138.387 56.766C138.709 56.502 138.871 56.1427 138.871 55.688C138.871 55.3067 138.739 54.9913 138.475 54.742C138.225 54.4927 137.91 54.2873 137.529 54.126C137.162 53.9647 136.634 53.7813 135.945 53.576C134.947 53.268 134.133 52.96 133.503 52.652C132.872 52.344 132.329 51.8893 131.875 51.288C131.42 50.6867 131.193 49.902 131.193 48.934C131.193 47.4967 131.713 46.3747 132.755 45.568C133.796 44.7467 135.153 44.336 136.825 44.336C138.526 44.336 139.897 44.7467 140.939 45.568C141.98 46.3747 142.537 47.504 142.611 48.956H138.541C138.511 48.4573 138.328 48.0687 137.991 47.79C137.653 47.4967 137.221 47.35 136.693 47.35C136.238 47.35 135.871 47.4747 135.593 47.724C135.314 47.9587 135.175 48.3033 135.175 48.758C135.175 49.2567 135.409 49.6453 135.879 49.924C136.348 50.2027 137.081 50.5033 138.079 50.826C139.076 51.1633 139.883 51.486 140.499 51.794C141.129 52.102 141.672 52.5493 142.127 53.136C142.581 53.7227 142.809 54.478 142.809 55.402C142.809 56.282 142.581 57.0813 142.127 57.8C141.687 58.5187 141.041 59.0907 140.191 59.516C139.34 59.9413 138.335 60.154 137.177 60.154ZM156.124 62.64L154.144 59.978C153.557 60.0953 152.985 60.154 152.428 60.154C150.976 60.154 149.641 59.8167 148.424 59.142C147.221 58.4673 146.26 57.5287 145.542 56.326C144.838 55.1087 144.486 53.7447 144.486 52.234C144.486 50.7233 144.838 49.3667 145.542 48.164C146.26 46.9613 147.221 46.0227 148.424 45.348C149.641 44.6733 150.976 44.336 152.428 44.336C153.88 44.336 155.207 44.6733 156.41 45.348C157.627 46.0227 158.58 46.9613 159.27 48.164C159.974 49.3667 160.326 50.7233 160.326 52.234C160.326 53.554 160.054 54.764 159.512 55.864C158.984 56.9493 158.243 57.8513 157.29 58.57L160.678 62.64H156.124ZM148.336 52.234C148.336 53.598 148.702 54.6907 149.436 55.512C150.184 56.3187 151.181 56.722 152.428 56.722C153.66 56.722 154.642 56.3113 155.376 55.49C156.124 54.6687 156.498 53.5833 156.498 52.234C156.498 50.87 156.124 49.7847 155.376 48.978C154.642 48.1567 153.66 47.746 152.428 47.746C151.181 47.746 150.184 48.1493 149.436 48.956C148.702 49.7627 148.336 50.8553 148.336 52.234ZM166.158 44.556V53.796C166.158 54.72 166.385 55.4313 166.84 55.93C167.294 56.4287 167.962 56.678 168.842 56.678C169.722 56.678 170.396 56.4287 170.866 55.93C171.335 55.4313 171.57 54.72 171.57 53.796V44.556H175.332V53.774C175.332 55.1527 175.038 56.3187 174.452 57.272C173.865 58.2253 173.073 58.944 172.076 59.428C171.093 59.912 169.993 60.154 168.776 60.154C167.558 60.154 166.466 59.9193 165.498 59.45C164.544 58.966 163.789 58.2473 163.232 57.294C162.674 56.326 162.396 55.1527 162.396 53.774V44.556H166.158ZM187.587 57.272H181.823L180.899 60H176.961L182.549 44.556H186.905L192.493 60H188.511L187.587 57.272ZM186.619 54.368L184.705 48.714L182.813 54.368H186.619ZM202.07 60L198.858 54.17H197.956V60H194.194V44.556H200.508C201.725 44.556 202.759 44.7687 203.61 45.194C204.475 45.6193 205.121 46.206 205.546 46.954C205.971 47.6873 206.184 48.5087 206.184 49.418C206.184 50.4447 205.891 51.3613 205.304 52.168C204.732 52.9747 203.881 53.5467 202.752 53.884L206.316 60H202.07ZM197.956 51.508H200.288C200.977 51.508 201.491 51.3393 201.828 51.002C202.18 50.6647 202.356 50.188 202.356 49.572C202.356 48.9853 202.18 48.5233 201.828 48.186C201.491 47.8487 200.977 47.68 200.288 47.68H197.956V51.508ZM212.308 47.57V50.694H217.346V53.598H212.308V56.986H218.006V60H208.546V44.556H218.006V47.57H212.308Z" fill="black"/>
</svg>
