<svg width="250" height="104" viewBox="0 0 250 104" fill="none" xmlns="http://www.w3.org/2000/svg">
<path fill-rule="evenodd" clip-rule="evenodd" d="M87.9949 41.5482C87.7559 41.7918 87.7559 62.9788 87.9949 63.2223C88.2588 63.491 90.7812 63.448 91.054 63.1703C91.2467 62.9738 91.2702 61.8071 91.2702 52.4361C91.2702 45.4569 91.2223 41.8311 91.1278 41.6511C91.0012 41.4101 90.8285 41.38 89.5727 41.38C88.6574 41.38 88.1019 41.4393 87.9949 41.5482ZM109.608 41.5339C109.473 41.6767 109.436 44.0457 109.436 52.4084C109.436 62.4534 109.45 63.1073 109.676 63.2164C109.809 63.2803 112.023 63.2903 114.596 63.2385C119.783 63.1344 120.301 63.0612 122.041 62.1865C124.426 60.988 126.152 58.4958 126.861 55.2285C127.184 53.7385 127.155 51.061 126.796 49.301C125.988 45.336 123.364 42.5122 119.757 41.7246C118.338 41.4149 109.87 41.2558 109.608 41.5339ZM161.145 41.5314C160.932 41.6573 160.904 41.9207 160.904 43.7423C160.904 45.1637 160.852 45.8627 160.739 45.9784C160.636 46.0834 160.124 46.1466 159.377 46.1466C157.974 46.1466 158.014 46.1017 158.014 47.6887C158.014 49.277 157.973 49.2309 159.388 49.2309C160.198 49.2309 160.643 49.2896 160.741 49.4095C160.835 49.5261 160.902 51.4856 160.932 55.0523C160.974 59.9236 161.006 60.5925 161.231 61.2175C161.573 62.1708 162.029 62.7501 162.801 63.2122C163.387 63.5632 163.576 63.6008 164.757 63.6008C165.89 63.6008 166.17 63.5503 166.858 63.2218C169.089 62.1571 170.518 59.313 170.93 55.1196C171.107 53.324 170.92 52.9533 170.689 54.6393C170.163 58.4691 168.441 60.867 166.217 60.867C165.498 60.867 164.834 60.3885 164.532 59.6514C164.263 58.9944 164.257 49.6196 164.526 49.3922C164.633 49.3013 165.515 49.223 166.693 49.1999L168.679 49.1608V47.6887V46.2167L166.693 46.1776C165.515 46.1545 164.633 46.0762 164.526 45.9852C164.39 45.871 164.344 45.3019 164.344 43.7511C164.344 41.8373 164.323 41.6586 164.078 41.5251C163.736 41.3388 161.461 41.3437 161.145 41.5314ZM58.1736 41.9305C56.8263 42.2795 55.8791 42.6933 54.7999 43.4046C50.6396 46.1462 48.9335 51.5341 50.6793 56.4174C51.8636 59.7303 54.4544 62.136 57.91 63.1317C59.4169 63.5659 61.9555 63.5648 63.5326 63.1292C68.0262 61.8885 71.0407 58.0767 71.3953 53.1874C71.7177 48.742 69.1409 44.3448 65.1629 42.5526C63.1957 41.6664 60.217 41.4013 58.1736 41.9305ZM118.505 44.8205C121.692 45.5851 123.345 48.1311 123.37 52.3152C123.387 54.9486 122.77 56.793 121.371 58.3006C120.024 59.7508 118.502 60.205 115.215 60.1372L113.22 60.0959L113.184 52.4712C113.157 46.5296 113.187 44.7998 113.321 44.635C113.467 44.456 113.809 44.4378 115.558 44.5163C116.694 44.5673 118.02 44.7042 118.505 44.8205ZM62.8243 45.4469C64.562 45.9937 66.1813 47.4144 67.041 49.1463C69.1801 53.4556 66.7997 58.7101 62.2092 59.8126C61.1249 60.0731 60.4892 60.0753 59.3194 59.8227C57.9076 59.5178 56.9184 58.962 55.8191 57.8559C54.2935 56.3206 53.6511 54.7439 53.6475 52.5254C53.6424 49.2187 55.6088 46.4191 58.6274 45.436C59.7369 45.0745 61.6568 45.0796 62.8243 45.4469ZM149.586 45.8786C147.05 46.1643 145.23 47.328 144.345 49.2285C144 49.9686 143.911 50.3623 143.864 51.3498C143.795 52.8285 143.965 53.4182 144.696 54.2259C145.44 55.0475 146.231 55.3174 149.162 55.7499C152.983 56.3136 153.698 56.4918 154.244 57.0167C154.654 57.4101 154.711 57.5513 154.711 58.1641C154.711 59.8544 152.944 60.995 150.58 60.83C148.671 60.6967 147.555 59.9527 146.936 58.3996L146.607 57.5724L145.244 57.5328C143.527 57.4827 143.453 57.5445 143.763 58.775C144.237 60.6622 145.188 61.9064 146.839 62.8034C147.931 63.3958 149.149 63.6668 150.72 63.6664C153.191 63.6657 154.869 63.0654 156.257 61.6857C157.403 60.5455 157.808 59.5992 157.806 58.0631C157.804 57.0997 157.745 56.7581 157.495 56.2796C156.842 55.0264 155.83 54.1873 154.469 53.7685C154.11 53.6581 152.528 53.3801 150.952 53.1507C149.377 52.9212 147.91 52.6397 147.692 52.5252C146.862 52.0879 146.681 51.4138 147.126 50.4168C147.783 48.9417 149.768 48.3046 151.851 48.9C152.862 49.1892 153.624 49.8627 154.206 50.9833L154.642 51.8245H156.018H157.395L157.439 51.4308C157.499 50.8991 157.016 49.4895 156.487 48.6488C155.225 46.6464 152.496 45.5505 149.586 45.8786ZM92.3711 46.0622C92.3711 46.1054 93.7158 49.6593 95.3593 53.9595C98.255 61.5364 98.3474 61.8087 98.3413 62.7596C98.3376 63.3399 98.244 63.9559 98.1125 64.2667L97.8898 64.7924H96.0418C94.6272 64.7924 94.1564 64.8384 94.0342 64.9884C93.9305 65.1157 93.8885 65.6675 93.9142 66.5656L93.9537 67.9468L97.0095 67.9845C99.9641 68.021 100.07 68.0128 100.216 67.7361C100.407 67.3717 108.197 46.2752 108.197 46.1211C108.197 45.9275 104.977 45.9834 104.713 46.1817C104.505 46.3371 103.467 49.1796 101.131 55.9943C100.741 57.131 100.391 58.0599 100.353 58.0585C100.315 58.057 99.3623 55.4551 98.2359 52.2765C97.1094 49.0978 96.1009 46.4025 95.9951 46.2868C95.8488 46.1271 95.3897 46.0653 94.0868 46.03C93.1432 46.0045 92.3711 46.0189 92.3711 46.0622ZM72.7838 46.2401C72.7333 46.2914 72.692 50.0956 72.692 54.6938C72.692 61.0093 72.7324 63.0951 72.8572 63.2223C73.03 63.3984 75.369 63.4649 75.7771 63.3054C75.9716 63.2294 75.9948 62.4884 75.9948 56.3829C75.9948 50.7535 76.0283 49.5173 76.1841 49.3857C76.3169 49.2734 77.3506 49.2369 79.6589 49.2634L82.9444 49.301L83.0132 56.2107C83.0724 62.1481 83.1111 63.1391 83.2885 63.2534C83.5455 63.4188 86.0423 63.4296 86.2952 63.2663C86.4479 63.1679 86.4794 61.6506 86.4725 54.7517C86.4678 50.1346 86.4616 46.3097 86.4589 46.2518C86.4524 46.1219 72.9111 46.1103 72.7838 46.2401ZM128.66 46.2359C128.607 46.2896 128.564 50.0956 128.564 54.6938C128.564 61.0093 128.604 63.0951 128.729 63.2223C128.987 63.4846 142.096 63.4626 142.31 63.1996C142.423 63.0612 142.456 60.6972 142.43 54.6127L142.395 46.2167L140.778 46.1772C139.888 46.1554 139.147 46.1554 139.129 46.1772C139.112 46.1989 139.066 49.3395 139.026 53.1563L138.954 60.0959L135.548 60.1334C133.675 60.1541 132.128 60.1541 132.111 60.1334C132.094 60.1128 132.047 56.9731 132.008 53.1563L131.936 46.2167L130.346 46.1775C129.471 46.1559 128.713 46.1821 128.66 46.2359Z" fill="black"/>
</svg>
