<svg width="250" height="104" viewBox="0 0 250 104" fill="none" xmlns="http://www.w3.org/2000/svg">
<path fill-rule="evenodd" clip-rule="evenodd" d="M46.3812 38.6307C43.4143 41.674 42.8341 42.3016 42.7948 42.5097C42.759 42.6998 42.8938 43.3171 43.3696 45.142C43.7116 46.4531 43.9758 47.5413 43.9568 47.5603C43.9378 47.5792 43.8138 47.4443 43.6813 47.2605C43.154 46.5294 41.3837 44.6023 41.0937 44.4438C40.978 44.3806 40.889 44.3745 40.7967 44.4236C40.7243 44.4623 39.1654 46.0301 37.3325 47.9078C34.7065 50.598 34 51.3598 34 51.501C34 51.6423 34.7324 52.4299 37.4675 55.2295C39.3746 57.1816 41.0043 58.8271 41.0891 58.8862C41.1738 58.9453 41.3554 58.9925 41.4926 58.9911C41.6298 58.9897 42.7442 58.7098 43.9691 58.3693C45.1941 58.0288 46.22 57.7625 46.249 57.7777C46.278 57.7929 46.0552 58.0002 45.754 58.2383C45.4528 58.4764 44.7527 59.1158 44.1982 59.6592C43.312 60.5276 43.1901 60.6746 43.1907 60.8747C43.1913 61.0793 43.53 61.4491 46.5573 64.5511C49.0844 67.1405 49.9638 68 50.0865 68C50.2091 68 51.1021 67.1274 53.669 64.4995C55.5496 62.5741 57.159 60.9076 57.2455 60.7959C57.3352 60.6801 57.4027 60.493 57.4027 60.3601C57.4027 60.2321 57.1312 59.0917 56.7994 57.8259C56.4676 56.56 56.207 55.4921 56.2202 55.4525C56.2335 55.413 56.3198 55.4891 56.412 55.6216C56.902 56.3259 58.8146 58.4197 59.1132 58.5787C59.1968 58.6232 59.2881 58.6217 59.3773 58.5742C59.5984 58.4565 66.0577 51.8219 66.1293 51.639C66.1694 51.5366 66.1694 51.4187 66.1293 51.3346C66.0487 51.1655 59.3539 44.3007 59.1031 44.13C59.0039 44.0625 58.8203 44.0071 58.695 44.0069C58.5238 44.0065 54.5624 45.051 54.0267 45.2377C53.8217 45.3092 53.9669 45.1306 54.3702 44.8152C54.9954 44.3265 56.9123 42.4557 56.9863 42.2623C57.0279 42.1534 57.0192 42.0424 56.9608 41.9343C56.9122 41.8444 55.3827 40.2474 53.562 38.3854C51.0556 35.8223 50.2114 35 50.0862 35C49.9607 35 49.0673 35.8754 46.3812 38.6307ZM78.3211 43.6238C77.6105 43.7518 77.083 43.9536 76.5723 44.2931C75.8823 44.7515 75.4877 45.3971 75.3138 46.3521C75.1218 47.4063 75.3023 48.4415 75.8367 49.3511C76.3744 50.2663 77.0431 50.8293 82.1267 54.6474C82.3284 54.7989 82.5829 55.0393 82.6923 55.1816C82.8675 55.4095 82.8912 55.5001 82.8912 55.943C82.8912 56.3463 82.8632 56.477 82.7498 56.6036C82.4421 56.947 82.3744 56.9531 78.8634 56.9531H75.5734V58.4659V59.9787H79.3944C83.653 59.9787 83.8774 59.9597 84.822 59.5191C86.0761 58.9341 86.7422 57.7689 86.7633 56.1228C86.7776 55.0135 86.4892 54.1645 85.7896 53.2555C85.2525 52.5576 84.8419 52.234 82.2105 50.4341C80.9336 49.5608 79.7488 48.7235 79.5776 48.5736C78.9168 47.9946 78.8862 47.1076 79.5129 46.6987C79.686 46.5858 80.0099 46.5715 83.1001 46.5394L86.4971 46.5043L86.5162 45.0091L86.5352 43.5139L82.6982 43.5202C79.7631 43.525 78.7342 43.5493 78.3211 43.6238ZM88.3 45.0267V46.5394H90.4918H92.6836V53.2591V59.9787H94.5926H96.5016V53.26V46.5415L98.6757 46.5228L100.85 46.5043L100.869 45.0091L100.888 43.5139H94.594H88.3V45.0267ZM103.678 51.6839C101.889 56.1769 100.415 59.8813 100.402 59.9158C100.389 59.9518 101.253 59.9787 102.424 59.9787H104.47L105.028 58.3959L105.587 56.8132L108.911 56.8128L112.235 56.8124L112.798 58.3955L113.361 59.9787H115.403C117.318 59.9787 117.442 59.9711 117.398 59.8555C117.372 59.7879 115.898 56.0833 114.122 51.6231L110.894 43.5139L108.912 43.5143L106.93 43.5148L103.678 51.6839ZM118.49 51.7417V59.9787H120.399H122.308V56.9772V53.9758L123.431 54.0198C124.784 54.0728 125.204 54.1945 125.592 54.6456C125.956 55.0693 126.148 55.6419 126.684 57.903L127.168 59.9435L129.086 59.9622C130.141 59.9725 131.005 59.9567 131.005 59.927C131.005 59.7629 130.057 55.9164 129.899 55.4414C129.499 54.2341 128.929 53.3824 128.228 52.9443L127.837 52.6997L128.392 52.4399C129.992 51.6917 130.711 50.0935 130.509 47.7356C130.388 46.3258 130.064 45.5171 129.326 44.7857C128.786 44.2498 128.242 43.9524 127.363 43.7114C126.816 43.5613 126.666 43.5555 122.644 43.5305L118.49 43.5048V51.7417ZM133.55 51.7463V59.9787H135.423H137.296L137.314 55.7615L137.333 51.5444L140.472 55.7328C142.199 58.0365 143.647 59.9346 143.69 59.951C143.733 59.9673 144.739 59.9723 145.926 59.9621L148.083 59.9435L144.776 55.7331C142.957 53.4175 141.471 51.5019 141.473 51.4762C141.475 51.4506 142.87 49.6565 144.573 47.4893L147.669 43.549L145.507 43.5304C144.317 43.5202 143.311 43.5243 143.271 43.5395C143.231 43.5547 141.879 45.3384 140.266 47.5033L137.333 51.4393L137.314 47.4766L137.296 43.5139H135.423H133.55V51.7463ZM150.165 43.5317C150.165 43.5433 151.275 47.2408 152.631 51.7482L155.096 59.9435L156.29 59.9626L157.483 59.9816L159.459 53.3944C161.303 47.2476 161.441 46.8229 161.515 47.0427C161.559 47.1722 162.451 50.1358 163.498 53.6285L165.402 59.9787H166.586C167.237 59.9787 167.77 59.9647 167.77 59.9476C167.77 59.9305 168.884 56.2548 170.245 51.7794C171.606 47.3041 172.72 43.6135 172.72 43.5781C172.72 43.542 172.226 43.5139 171.593 43.5139C170.581 43.5139 170.463 43.5264 170.43 43.637C170.41 43.7048 169.531 46.8144 168.478 50.5475C167.424 54.2806 166.55 57.3463 166.536 57.3604C166.522 57.3744 166.493 57.3281 166.471 57.2574C166.377 56.948 162.61 44.2823 162.504 43.9184L162.387 43.5139H161.442H160.498L160.38 43.9184C159.904 45.5594 156.444 57.1571 156.399 57.2646C156.358 57.3627 156.23 57.0035 155.938 55.9629C155.715 55.1724 154.839 52.0559 153.991 49.0373L152.449 43.549L151.307 43.5297C150.679 43.5191 150.165 43.5199 150.165 43.5317ZM175.137 51.6215C173.342 56.0825 171.854 59.7879 171.83 59.8555C171.789 59.9697 171.872 59.9787 172.977 59.9785L174.169 59.9784L174.983 57.8501L175.797 55.7217L179.549 55.7035L183.3 55.6854L184.112 57.8144L184.924 59.9435L186.129 59.9627L187.334 59.9819L184.027 51.7655L180.721 43.549L179.561 43.5298L178.401 43.5106L175.137 51.6215ZM189.335 51.7418V59.9787H190.43H191.525L191.544 56.5837L191.562 53.1887L193.329 53.1924C195.661 53.1971 196.152 53.3171 196.842 54.0518C197.465 54.7143 197.75 55.5169 198.316 58.202L198.691 59.9787H199.808C200.671 59.9787 200.919 59.9586 200.896 59.8907C200.88 59.8424 200.687 58.9795 200.467 57.9733C200.058 56.1017 199.735 54.9872 199.424 54.3763C199.02 53.5842 198.428 52.9705 197.721 52.6124L197.374 52.4372L197.827 52.2852C199.146 51.8416 199.994 50.8603 200.259 49.4709C200.396 48.7533 200.394 47.4527 200.255 46.7652C200 45.5076 199.308 44.5651 198.28 44.0773C197.209 43.569 197.164 43.5642 193.029 43.5329L189.335 43.5049V51.7418ZM204.482 50.2862C204.502 56.5028 204.514 57.0933 204.628 57.4808C205.012 58.7843 205.657 59.4138 206.988 59.7838C207.518 59.9313 207.692 59.9385 211.27 59.9621L215 59.9866V59.1445V58.3023L211.836 58.2738C208.818 58.2466 208.651 58.2382 208.205 58.092C207.588 57.8895 207.167 57.5182 206.898 56.9396L206.692 56.4957L206.67 54.1914L206.648 51.887H210.329H214.01V51.0778V50.2687H210.334H206.657V47.7708V45.2729H210.829H215V44.3934V43.5139H209.73H204.461L204.482 50.2862ZM195.475 45.2054C196.857 45.3778 197.639 45.9273 198.01 46.9863C198.192 47.5057 198.192 49.2321 198.01 49.7514C197.625 50.8489 196.858 51.3717 195.384 51.5397C195.032 51.5798 194.028 51.6032 193.153 51.5915L191.562 51.5704L191.543 48.4392C191.533 46.7171 191.54 45.2686 191.559 45.2201C191.602 45.1081 194.604 45.0967 195.475 45.2054ZM181.163 50.0486C182.006 52.2688 182.683 54.0977 182.668 54.1127C182.652 54.1278 181.238 54.1318 179.523 54.1218L176.407 54.1034L177.974 50.0077C178.836 47.7551 179.562 45.9345 179.587 45.9618C179.612 45.9893 180.321 47.8283 181.163 50.0486ZM125.419 46.5019C125.691 46.5882 125.907 46.7239 126.137 46.9525C126.6 47.4129 126.714 47.8321 126.681 48.9564C126.658 49.7395 126.639 49.8468 126.444 50.2335C126.031 51.0564 125.474 51.2537 123.566 51.2537H122.308V48.7836V46.3134L123.669 46.3459C124.701 46.3705 125.124 46.4083 125.419 46.5019ZM52.4557 48.721C51.9329 50.7176 51.8887 50.9375 51.9645 51.1658C52.0223 51.3403 52.4993 51.8788 53.5302 52.9337C54.3455 53.768 54.9821 54.4608 54.9447 54.4732C54.9073 54.4856 53.9497 54.2413 52.8168 53.9302C51.6838 53.6191 50.689 53.3646 50.606 53.3646C50.4096 53.3646 50.0208 53.606 49.8327 53.8445C49.5951 54.1459 47.2066 56.5396 47.1749 56.508C47.1591 56.4923 47.404 55.4924 47.7192 54.2861C48.1361 52.6901 48.2791 52.034 48.2445 51.877C48.2106 51.7233 47.7609 51.212 46.6843 50.103C45.8524 49.2459 45.202 48.5347 45.239 48.5223C45.276 48.51 46.2336 48.7554 47.3671 49.0676C48.5006 49.3799 49.4962 49.6343 49.5796 49.6329C49.6631 49.6315 49.8001 49.592 49.8841 49.545C49.968 49.498 50.696 48.7855 51.5017 47.9617C52.3075 47.1379 52.981 46.4781 52.9985 46.4954C53.0159 46.5128 52.7717 47.5142 52.4557 48.721ZM110.106 50.8211C110.712 52.5374 111.208 53.9701 111.208 54.005C111.208 54.0411 110.22 54.0682 108.902 54.0682C107.088 54.0682 106.604 54.0495 106.63 53.9803C106.648 53.9319 107.168 52.4766 107.785 50.7462C108.403 49.0159 108.93 47.6227 108.956 47.6503C108.982 47.6778 109.5 49.1047 110.106 50.8211Z" fill="black"/>
</svg>
